<svg width="45" height="45" viewBox="0 0 45 45" fill="none" xmlns="http://www.w3.org/2000/svg">
<path d="M13.9841 15.0938C18.094 15.0938 21.437 11.7521 21.437 7.64378C21.437 6.39438 21.1205 5.1559 20.5228 4.06745C20.3918 3.83012 20.0943 3.74282 19.8569 3.87376C19.7532 3.93105 19.6796 4.02107 19.6386 4.12473C19.5868 4.25567 19.5895 4.40844 19.6632 4.54211C20.1817 5.48871 20.4546 6.56079 20.4546 7.64651C20.4546 11.2147 17.5509 14.1145 13.9841 14.1145C10.4173 14.1145 7.51368 11.2119 7.51368 7.64651C7.51368 4.08109 10.4173 1.17855 13.9841 1.17855C15.365 1.17855 16.6831 1.60684 17.7965 2.41977C17.9112 2.50161 18.0476 2.52888 18.1758 2.50433C18.2959 2.48251 18.4051 2.41704 18.4815 2.31338C18.6425 2.09514 18.5934 1.78688 18.3751 1.62866C17.0925 0.692977 15.5751 0.199219 13.9841 0.199219C9.87425 0.199219 6.53125 3.54095 6.53125 7.64924C6.53125 11.7575 9.87425 15.0993 13.9841 15.0993V15.0938Z" fill="white" stroke="white" stroke-width="0.4" stroke-miterlimit="10"/>
<path d="M14.0618 7.15786C13.6388 7.08693 13.265 6.89597 13.0139 6.615C12.7901 6.36402 12.6891 6.07759 12.7355 5.80207C12.8338 5.20192 13.6115 4.80637 14.4275 4.94276C14.7468 4.9946 15.0415 5.12008 15.2762 5.30285C15.4918 5.46926 15.8002 5.42834 15.9666 5.21556C16.1331 5.00005 16.0922 4.69179 15.8793 4.52812C15.5136 4.24714 15.0688 4.05618 14.5885 3.97707C13.2213 3.75338 11.955 4.50084 11.7667 5.64385C11.6712 6.21944 11.8568 6.79777 12.2852 7.27516C12.6864 7.71981 13.2622 8.02262 13.9035 8.12901C14.3265 8.19993 14.7004 8.39089 14.9515 8.67187C15.1752 8.92284 15.2762 9.20927 15.2298 9.4848C15.1316 10.0849 14.3565 10.4805 13.5378 10.3441C13.2185 10.2923 12.9238 10.1668 12.6891 9.98401C12.4735 9.8176 12.1651 9.85852 11.9987 10.0713C11.8322 10.2868 11.8732 10.5951 12.086 10.7587C12.4517 11.0397 12.8965 11.2307 13.3768 11.3098C13.5406 11.3371 13.7043 11.3507 13.8626 11.3507C15.0306 11.3507 16.0321 10.6496 16.1986 9.64302C16.2941 9.06742 16.1086 8.48909 15.6801 8.0117C15.279 7.56705 14.7031 7.26425 14.0618 7.15786Z" fill="white" stroke="white" stroke-width="0.4" stroke-miterlimit="10"/>
<path d="M33.5298 18.7222C32.9634 18.6361 32.4628 18.4042 32.1266 18.0631C31.827 17.7584 31.6918 17.4107 31.7539 17.0762C31.8855 16.3476 32.9269 15.8673 34.0195 16.0329C34.447 16.0959 34.8416 16.2482 35.1559 16.4701C35.4446 16.6721 35.8575 16.6225 36.0804 16.3641C36.3033 16.1025 36.2485 15.7282 35.9635 15.5295C35.4738 15.1884 34.8782 14.9566 34.2351 14.8605C32.4044 14.589 30.7088 15.4964 30.4567 16.8841C30.3288 17.5829 30.5773 18.285 31.151 18.8646C31.6881 19.4044 32.4592 19.772 33.3179 19.9012C33.8843 19.9873 34.3849 20.2191 34.7211 20.5603C35.0207 20.8649 35.1559 21.2127 35.0938 21.5472C34.9622 22.2758 33.9244 22.756 32.8282 22.5904C32.4007 22.5275 32.006 22.3752 31.6918 22.1533C31.4031 21.9512 30.9902 22.0009 30.7673 22.2592C30.5444 22.5209 30.5992 22.8951 30.8842 23.0938C31.3739 23.4349 31.9695 23.6668 32.6126 23.7628C32.8319 23.7959 33.0511 23.8125 33.2631 23.8125C34.827 23.8125 36.1681 22.9614 36.391 21.7393C36.5189 21.0405 36.2704 20.3384 35.6967 19.7588C35.1596 19.2189 34.3885 18.8513 33.5298 18.7222Z" fill="white" stroke="white" stroke-width="0.4" stroke-miterlimit="10"/>
<path d="M20.8957 28.7227L10.5364 29.0582L10.5691 30.0403L20.9038 29.7047C21.1876 29.7238 21.4633 29.8002 21.7225 29.9284L28.0784 33.0928C28.5996 33.352 28.9871 33.7994 29.1754 34.3559C29.3637 34.9124 29.3228 35.5043 29.0635 36.0254C28.8043 36.5464 28.3567 36.9338 27.8 37.122C27.2433 37.3075 26.6511 37.2666 26.1298 37.0102L19.774 33.8457C19.5312 33.7257 19.2364 33.8239 19.1163 34.0667C18.9963 34.3095 19.0945 34.6041 19.3374 34.7241L25.6932 37.8886C26.1353 38.1095 26.6156 38.2214 27.0987 38.2214C27.4398 38.2214 27.7809 38.1668 28.1138 38.055C28.2203 38.0195 28.324 37.9786 28.4249 37.9322C28.4413 37.9268 28.455 37.924 28.4713 37.9186L39.9358 33.2729C41.243 32.7437 42.7385 33.3765 43.2679 34.6832C43.5245 35.3134 43.5163 36.009 43.2488 36.6392C42.9814 37.2693 42.4874 37.7576 41.857 38.014L30.6818 42.537C28.9626 43.2326 27.0441 43.2953 25.2811 42.7143L9.53485 37.523C9.27832 37.4384 8.99996 37.5776 8.91536 37.8367C8.83076 38.0932 8.96995 38.3714 9.2292 38.456L24.9755 43.6473C25.8733 43.9419 26.8066 44.0892 27.74 44.0892C28.867 44.0892 29.9941 43.8737 31.053 43.4454L42.2282 38.9224C43.1015 38.5678 43.7865 37.894 44.1549 37.0211C44.5233 36.1481 44.5342 35.1852 44.1794 34.3122C43.4453 32.5036 41.3767 31.6279 39.5674 32.3617L30.0569 36.2163C30.3298 35.5234 30.3543 34.7651 30.1142 34.0476C29.844 33.2429 29.2791 32.5936 28.5259 32.2172L22.1701 29.0527C21.7853 28.8618 21.3759 28.7527 20.9502 28.7281C20.9366 28.7281 20.9202 28.7281 20.9065 28.7281L20.8957 28.7227Z" fill="white" stroke="white" stroke-width="0.4" stroke-miterlimit="10"/>
<path d="M1.94047 39.9791L4.79502 40.3774C4.88781 40.391 4.98329 40.3965 5.07335 40.3965C6.06125 40.3965 6.92908 39.6654 7.06826 38.6588L8.51737 28.2708C8.59106 27.7388 8.45186 27.2096 8.12711 26.7786C7.80236 26.3476 7.33025 26.0693 6.7981 25.9957L3.94358 25.5974C3.41142 25.5237 2.88197 25.6629 2.45079 25.9875C2.01961 26.3121 1.74126 26.784 1.66757 27.316L0.218493 37.704C0.144811 38.236 0.283971 38.7652 0.608721 39.1962C0.933471 39.6272 1.40559 39.9055 1.93774 39.9791H1.94047ZM1.19546 37.8404L2.64457 27.4524C2.68278 27.1823 2.82468 26.9395 3.04573 26.7731C3.22857 26.6367 3.44417 26.5631 3.66795 26.5631C3.71434 26.5631 3.76347 26.5658 3.80986 26.574L6.66438 26.9723C6.93728 27.0105 7.17743 27.1523 7.34389 27.3733C7.51036 27.5942 7.58131 27.867 7.54311 28.1371L6.09403 38.5251C6.01489 39.0898 5.49364 39.4854 4.92874 39.4063L2.07419 39.008C1.80402 38.9698 1.56114 38.8279 1.39467 38.607C1.2282 38.386 1.15726 38.1132 1.19546 37.8431V37.8404Z" fill="white" stroke="white" stroke-width="0.4" stroke-miterlimit="10"/>
<path d="M33.0924 29.2323C38.3676 29.2323 42.6576 24.9439 42.6576 19.6708C42.6576 14.3977 38.3676 10.1094 33.0924 10.1094C27.8173 10.1094 23.5273 14.3977 23.5273 19.6708C23.5273 24.9439 27.8173 29.2323 33.0924 29.2323ZM33.0924 11.0914C37.8245 11.0914 41.6752 14.9406 41.6752 19.6708C41.6752 24.4011 37.8245 28.2502 33.0924 28.2502C28.3604 28.2502 24.5098 24.4011 24.5098 19.6708C24.5098 14.9406 28.3604 11.0914 33.0924 11.0914Z" fill="white" stroke="white" stroke-width="0.4" stroke-miterlimit="10"/>
</svg>
