<svg width="45" height="48" viewBox="0 0 45 48" fill="none" xmlns="http://www.w3.org/2000/svg">
<path d="M38.4262 32.0793C38.156 32.0984 37.9513 32.3303 37.9677 32.6031L37.9977 33.0369C38.0141 33.296 38.2297 33.4952 38.4862 33.4952C38.4971 33.4952 38.5081 33.4952 38.519 33.4952C38.7891 33.4761 38.9938 33.2442 38.9774 32.9714L38.9474 32.5376C38.9283 32.2676 38.6963 32.0602 38.4234 32.0793H38.4262Z" fill="white" stroke="white" stroke-width="0.4" stroke-miterlimit="10"/>
<path d="M3.80136 43.2758L4.58731 43.3058C4.6337 43.3058 4.68283 43.3085 4.72922 43.3085C5.67073 43.3085 6.56585 42.9566 7.26447 42.3101C7.60832 41.9909 7.88122 41.6199 8.08044 41.2135L11.5927 45.7937C11.5927 45.7937 11.6063 45.8128 11.6145 45.821C12.5423 46.8658 13.8386 47.425 15.1622 47.425C15.8308 47.425 16.5048 47.2832 17.1461 46.9913L23.3491 44.1651C25.6415 43.123 26.7249 40.4688 25.8162 38.1227L24.5799 34.9256C24.4817 34.6719 24.1979 34.5464 23.9441 34.6446C23.6903 34.7428 23.5647 35.0265 23.663 35.2802L24.8992 38.4774C25.6197 40.3378 24.76 42.4438 22.9398 43.2704L16.7368 46.0992C15.2249 46.7894 13.4675 46.4211 12.3568 45.1826L8.42429 40.0596C8.43794 39.9477 8.44885 39.8331 8.45431 39.7186L8.7845 30.9073C8.7845 30.8637 8.7845 30.82 8.7845 30.7764L15.5524 29.7234C15.8199 29.6825 16.0027 29.4315 15.9618 29.1614C15.9208 28.8941 15.6698 28.7086 15.3996 28.7522L8.65898 29.8025C8.50343 29.2242 8.20871 28.6868 7.78572 28.2312C7.1062 27.4974 6.18379 27.0745 5.19044 27.0363L4.40449 27.0063C2.3441 26.9327 0.608439 28.5394 0.532028 30.599L0.20183 39.4103C0.125418 41.4672 1.73553 43.2049 3.7932 43.2813L3.80136 43.2758ZM1.52265 30.6291C1.57996 29.1123 2.85715 27.9284 4.3772 27.9829L5.16312 28.013C5.89449 28.0402 6.57402 28.3539 7.07615 28.8941C7.57829 29.4342 7.84029 30.1353 7.813 30.8664L7.48277 39.6777C7.45548 40.4087 7.14165 41.088 6.60131 41.5899C6.06097 42.0919 5.36235 42.351 4.62825 42.3265L3.8423 42.2965C2.32498 42.2392 1.13788 40.9598 1.19519 39.443L1.52539 30.6318L1.52265 30.6291Z" fill="white" stroke="white" stroke-width="0.4" stroke-miterlimit="10"/>
<path d="M5.88853 33.1268C5.88853 33.1268 5.90219 33.1268 5.90765 33.1268C6.16963 33.1268 6.38793 32.9194 6.39885 32.6548L6.41524 32.2211C6.42615 31.951 6.2133 31.7219 5.94313 31.711C5.67569 31.7082 5.44372 31.9128 5.43281 32.1829L5.41642 32.6166C5.4055 32.8867 5.61836 33.1159 5.88853 33.1268Z" fill="white" stroke="white" stroke-width="0.4" stroke-miterlimit="10"/>
<path d="M1.82503 24.8244C2.09247 24.7862 2.28078 24.5352 2.23984 24.2679C2.12795 23.4986 2.0652 22.7048 2.04609 21.9028H13.3387C13.3523 23.2067 13.4096 24.5216 13.5215 25.8146C13.5433 26.0711 13.7589 26.2647 14.01 26.2647C14.0236 26.2647 14.0373 26.2647 14.0537 26.2647C14.3238 26.2429 14.5231 26.0029 14.5012 25.7328C14.3921 24.4643 14.3347 23.1794 14.3211 21.9028H39.2041C39.4743 21.9028 39.6953 21.6818 39.6953 21.4117C39.6953 21.1417 39.4743 20.9207 39.2041 20.9207H14.3211C14.3511 17.8027 14.6677 14.7774 15.238 12.0576C17.5468 12.1831 19.8965 12.2458 22.2789 12.2458C24.6613 12.2458 27.0082 12.1804 29.3142 12.0576C29.6799 13.7953 29.95 15.683 30.1001 17.6744C30.1192 17.9336 30.3348 18.13 30.5886 18.13C30.6023 18.13 30.6132 18.13 30.6268 18.13C30.897 18.1109 31.099 17.8736 31.0799 17.6035C30.9298 15.6067 30.6705 13.7298 30.3185 12.0003C33.5196 11.8012 36.6388 11.4847 39.6462 11.0455C41.4664 14.079 42.5171 17.6281 42.5171 21.4172C42.5171 22.6366 42.4079 23.8532 42.1923 25.0317C42.0122 26.0383 41.7475 27.0286 41.4173 27.9861C40.907 27.7788 40.3448 27.6751 39.7581 27.716L38.9721 27.7678C37.4439 27.8715 36.194 28.8836 35.7055 30.2394L32.4771 27.0204C31.3937 25.7901 29.8354 25.1408 28.2008 25.2336C28.1844 25.2336 28.168 25.2336 28.1517 25.239L24.2383 25.8583C22.9993 25.9347 21.8231 26.4475 20.9253 27.3014L17.9534 30.1193C17.0992 30.9295 16.941 32.2362 17.5741 33.2265C18.0407 33.9548 18.8376 34.3613 19.6563 34.3613C20.0547 34.3613 20.4559 34.2658 20.8243 34.0639L24.4539 32.0916C24.6913 31.9634 24.7813 31.6633 24.6503 31.426C24.5221 31.1887 24.2219 31.0987 23.9845 31.2296L20.3549 33.2019C19.6754 33.5702 18.8185 33.3492 18.4037 32.7C18.0243 32.1053 18.1199 31.3196 18.6329 30.8313L21.6048 28.0134C22.3416 27.3123 23.3077 26.8949 24.3229 26.8376C24.3393 26.8376 24.3556 26.8376 24.372 26.8322L28.2826 26.2129C29.6144 26.142 30.8752 26.6767 31.7512 27.6778C31.7594 27.686 31.7676 27.6942 31.773 27.7024L35.4899 31.4069C35.4899 31.516 35.4899 31.6279 35.4954 31.7397L36.0876 40.5374C36.093 40.6192 36.1067 40.701 36.1148 40.7829L27.9552 42.1878C27.6877 42.2341 27.5076 42.4878 27.554 42.7552C27.5949 42.9952 27.8023 43.1616 28.037 43.1616C28.0643 43.1616 28.0916 43.1616 28.1216 43.1535L36.3714 41.7322C36.5897 42.2478 36.9199 42.7143 37.3566 43.0934C38.0443 43.6963 38.9066 44.0182 39.8099 44.0182C39.8945 44.0182 39.9791 44.0155 40.0637 44.01L40.8496 43.9582C42.9046 43.8191 44.4656 42.035 44.3264 39.9809L43.7342 31.1832C43.6605 30.073 43.1011 29.1073 42.2824 28.4771C42.659 27.4159 42.9565 26.3166 43.1557 25.2008C43.3822 23.9651 43.4941 22.6884 43.4941 21.4117C43.4941 17.358 42.3479 13.5662 40.3666 10.339C40.3421 10.2708 40.3039 10.2135 40.2547 10.1644C36.4969 4.18475 29.8464 0.199219 22.2761 0.199219C14.7059 0.199219 8.05261 4.18475 4.29478 10.1617C4.24566 10.2108 4.20471 10.2708 4.18015 10.339C2.1989 13.5634 1.05273 17.3553 1.05273 21.409C1.05273 22.4238 1.1237 23.4331 1.2656 24.4043C1.30381 24.6716 1.55213 24.8571 1.8223 24.8189L1.82503 24.8244ZM42.7545 31.2514L43.3467 40.0491C43.4477 41.5631 42.2987 42.8779 40.7842 42.9789L39.9982 43.0307C38.4809 43.1316 37.1682 41.9832 37.0673 40.4692L36.4751 31.6715C36.3741 30.1575 37.523 28.8427 39.0376 28.7417L39.8235 28.6899C39.8863 28.6844 39.9491 28.6844 40.0091 28.6844C40.4812 28.6844 40.9288 28.8072 41.3191 29.02C41.3709 29.0773 41.4337 29.1264 41.5101 29.1536C41.5265 29.1591 41.5428 29.1618 41.5592 29.1673C42.2305 29.6283 42.6944 30.3785 42.7545 31.2514ZM39.0649 10.1289C36.1722 10.5381 33.1784 10.8355 30.1056 11.0237C29.0659 6.51169 27.3712 3.10994 25.3217 1.41043C31.0308 2.27519 35.9675 5.53508 39.0649 10.1289ZM22.2761 1.18128C25.0843 1.18128 27.6713 5.15044 29.0932 11.0865C26.8581 11.2038 24.5821 11.2638 22.2761 11.2638C19.9701 11.2638 17.6887 11.2038 15.4509 11.0865C15.8876 9.24782 16.4442 7.57013 17.1047 6.12977C17.2166 5.88426 17.1102 5.59237 16.8618 5.4778C16.6162 5.36322 16.3242 5.47234 16.2096 5.72058C15.5028 7.25914 14.916 9.05686 14.4576 11.0264C11.3792 10.8382 8.38008 10.5409 5.48189 10.1317C9.12237 4.73852 15.2899 1.18401 22.2734 1.18401L22.2761 1.18128ZM4.90607 11.0401C7.91615 11.4793 11.0408 11.7957 14.2474 11.9949C13.6825 14.7474 13.366 17.7917 13.3359 20.918H2.04882C2.13615 17.3144 3.16497 13.9399 4.90607 11.0373V11.0401Z" fill="white" stroke="white" stroke-width="0.4" stroke-miterlimit="10"/>
</svg>
