<svg width="52" height="48" viewBox="0 0 52 48" fill="none" xmlns="http://www.w3.org/2000/svg">
<path d="M45.5378 33.7692C45.5378 33.7692 45.5651 33.7692 45.5788 33.7692C45.849 33.7474 46.0509 33.51 46.0291 33.24C45.9226 31.9442 45.8871 30.3593 45.9226 28.6543C45.9281 28.3842 45.7125 28.1578 45.4423 28.1523C45.4396 28.1523 45.4341 28.1523 45.4314 28.1523C45.164 28.1523 44.9457 28.3651 44.9402 28.6325C44.902 30.3702 44.9402 31.9906 45.0494 33.3191C45.0712 33.5755 45.284 33.7692 45.5378 33.7692Z" fill="white" stroke="white" stroke-width="0.4" stroke-miterlimit="10"/>
<path d="M51.039 28.458C50.9353 24.1751 50.8344 20.1269 43.1877 18.932C43.215 18.5447 43.2341 18.1491 43.2341 17.7426C43.2341 8.06934 35.3555 0.199219 25.673 0.199219C15.9906 0.199219 8.1065 8.06934 8.1065 17.7426C8.1065 18.1491 8.12561 18.5447 8.1529 18.932C0.511711 20.1269 0.408009 24.1751 0.307037 28.458C0.290663 29.11 0.274289 29.7865 0.230625 30.4549C-0.0750223 35.1388 1.83527 37.403 6.61919 38.0222C6.742 38.0386 6.86481 38.0467 6.98489 38.0467C8.40396 38.0467 9.64019 36.9692 9.87761 35.4552C10.5571 31.1178 10.1887 22.8194 9.16262 19.2567C9.11623 18.7738 9.09167 18.2637 9.09167 17.7426C9.09167 8.60948 16.5309 1.18128 25.6758 1.18128C34.8206 1.18128 42.2544 8.60948 42.2544 17.7426C42.2544 18.2828 42.2299 18.8065 42.1807 19.3003C42.1644 19.4613 42.2298 19.6086 42.339 19.7095L42.3445 19.7149C42.3636 19.7313 42.3854 19.7477 42.4072 19.7613C42.4127 19.764 42.4182 19.7695 42.4236 19.7722C42.4427 19.7831 42.4618 19.7913 42.4836 19.7995C42.4918 19.8022 42.5 19.8077 42.5082 19.8104C42.5082 19.8104 42.5109 19.8104 42.5137 19.8104C42.53 19.8159 42.5491 19.8186 42.5682 19.8241C42.5819 19.8268 42.5928 19.8322 42.6064 19.8322C49.8792 20.8198 49.9584 24.1997 50.0621 28.4771C50.0784 29.14 50.0948 29.8247 50.1385 30.5149C50.4114 34.7159 48.9132 36.4864 44.6041 37.0429C44.1593 37.1001 43.7335 36.991 43.376 36.7646C43.3624 36.7537 43.3487 36.7455 43.3351 36.7373C42.8766 36.4291 42.5409 35.9162 42.4427 35.297C42.0334 32.6809 42.0033 28.0952 42.3745 24.1479C42.399 23.8778 42.2025 23.6405 41.9324 23.6132C41.6622 23.5886 41.4221 23.785 41.3975 24.0551C41.0209 28.0734 41.0509 32.76 41.4712 35.447C41.5803 36.1372 41.8969 36.7346 42.3417 37.182L35.874 43.3199C35.3773 43.7918 34.7251 44.051 34.0401 44.051H31.5704V43.5736C31.5704 42.5751 30.7572 41.7649 29.7611 41.7649H25.3647C24.3659 41.7649 23.5553 42.5751 23.5553 43.5736V45.5077C23.5553 46.5061 24.3659 47.3163 25.3647 47.3163H29.7611C30.7599 47.3163 31.5704 46.5061 31.5704 45.5077V45.0303H34.0401C34.9789 45.0303 35.8713 44.6757 36.5508 44.0291L43.155 37.7603C43.5261 37.9376 43.9355 38.0358 44.3612 38.0358C44.4813 38.0358 44.6041 38.0277 44.7269 38.0113C49.5108 37.392 51.4211 35.1306 51.1155 30.444C51.0718 29.7729 51.0554 29.0991 51.039 28.4471V28.458ZM8.90337 35.3024C8.78056 36.0826 8.27569 36.6937 7.62619 36.9392C7.35056 37.0456 7.05038 37.0865 6.742 37.0456C2.43292 36.4891 0.934702 34.7187 1.2076 30.5176C1.25127 29.8274 1.26764 29.1427 1.28401 28.4798C1.30039 27.7733 1.31949 27.0886 1.36588 26.4393C1.43956 25.43 1.59239 24.497 1.9417 23.665C2.70309 21.8455 4.40598 20.5033 8.31117 19.8977C9.21447 23.4877 9.52831 31.2951 8.90064 35.3024H8.90337ZM30.5852 45.5159C30.5852 45.9714 30.2141 46.3424 29.7583 46.3424H25.3619C24.9062 46.3424 24.535 45.9714 24.535 45.5159V43.5818C24.535 43.1262 24.9062 42.7552 25.3619 42.7552H29.7583C30.2141 42.7552 30.5852 43.1262 30.5852 43.5818V45.5159Z" fill="white" stroke="white" stroke-width="0.4" stroke-miterlimit="10"/>
<path d="M13.3814 29.6081C13.1931 29.8018 13.204 30.1074 13.3977 30.2983C14.3147 31.1931 15.3299 31.9869 16.4215 32.6634L16.9127 37.6365C16.9591 38.1002 17.2293 38.5122 17.6386 38.7358C17.8487 38.8504 18.0834 38.9104 18.3154 38.9104C18.5337 38.9104 18.7548 38.8586 18.954 38.7577L25.7846 35.2904C30.3503 35.2604 34.6621 33.49 37.9341 30.301C38.1279 30.1128 38.1333 29.8018 37.9423 29.6054C37.754 29.4117 37.4402 29.4063 37.2464 29.5972C34.1299 32.6362 30.0173 34.3084 25.6646 34.3084C25.5882 34.3084 25.5117 34.3275 25.4408 34.3629L18.5064 37.8847C18.3782 37.9502 18.2308 37.9475 18.1053 37.8793C17.9797 37.8111 17.8978 37.6883 17.8842 37.5437L17.3739 32.3852C17.3739 32.2133 17.2893 32.0496 17.1365 31.9569C16.0285 31.2913 14.9997 30.5002 14.0773 29.6C13.8835 29.4117 13.5724 29.4145 13.3814 29.6081Z" fill="white" stroke="white" stroke-width="0.4" stroke-miterlimit="10"/>
<path d="M17.5942 15.6406C16.1915 15.6406 15.0508 16.7809 15.0508 18.1831C15.0508 19.5852 16.1915 20.7255 17.5942 20.7255C18.5248 20.7255 19.379 20.2181 19.8265 19.4025C19.9575 19.1651 19.8702 18.8651 19.6328 18.7368C19.6137 18.7259 19.5973 18.7205 19.5782 18.7123C19.3517 18.6223 19.087 18.7123 18.9669 18.9305C18.6913 19.4325 18.1673 19.7435 17.5969 19.7435C16.7373 19.7435 16.036 19.0451 16.036 18.1831C16.036 17.321 16.7373 16.6227 17.5969 16.6227C17.8371 16.6227 18.0336 16.4508 18.08 16.2244C18.0854 16.1944 18.0881 16.1617 18.0881 16.1317C18.0881 15.8616 17.8671 15.6406 17.5969 15.6406H17.5942Z" fill="white" stroke="white" stroke-width="0.4" stroke-miterlimit="10"/>
<path d="M25.6704 15.6406C24.2677 15.6406 23.127 16.7809 23.127 18.1831C23.127 19.5852 24.2677 20.7255 25.6704 20.7255C26.6938 20.7255 27.6134 20.1172 28.0146 19.1733C28.121 18.9223 28.0037 18.6359 27.7526 18.5295C27.6926 18.505 27.6325 18.4913 27.5697 18.4913C27.376 18.4886 27.1877 18.6004 27.1085 18.7914C26.8629 19.3697 26.3008 19.7435 25.6704 19.7435C24.8107 19.7435 24.1094 19.0451 24.1094 18.1831C24.1094 17.321 24.8107 16.6227 25.6704 16.6227C25.8969 16.6227 26.0879 16.4672 26.1425 16.2571C26.1534 16.2162 26.1616 16.1753 26.1616 16.1317C26.1616 15.8616 25.9405 15.6406 25.6704 15.6406Z" fill="white" stroke="white" stroke-width="0.4" stroke-miterlimit="10"/>
<path d="M33.8247 15.6394C32.422 15.6394 31.2812 16.7797 31.2812 18.1819C31.2812 19.5841 32.422 20.7243 33.8247 20.7243C34.848 20.7243 35.7677 20.116 36.1689 19.1721C36.2753 18.9212 36.158 18.6347 35.9069 18.5283C35.9014 18.5283 35.896 18.5283 35.8932 18.5229C35.6476 18.4274 35.3665 18.5447 35.2628 18.7875C35.0172 19.3658 34.4551 19.7396 33.8247 19.7396C32.965 19.7396 32.2637 19.0412 32.2637 18.1792C32.2637 17.3171 32.965 16.6188 33.8247 16.6188C34.0676 16.6188 34.2668 16.4415 34.3077 16.2123C34.3132 16.185 34.3159 16.1578 34.3159 16.1278C34.3159 15.8577 34.0948 15.6367 33.8247 15.6367V15.6394Z" fill="white" stroke="white" stroke-width="0.4" stroke-miterlimit="10"/>
</svg>
