<svg width="41" height="44" viewBox="0 0 41 44" fill="none" xmlns="http://www.w3.org/2000/svg">
<path d="M35.336 13.347C35.1204 13.5107 35.0767 13.819 35.2377 14.0345C37.7211 17.3326 39.0337 21.2608 39.0337 25.4018C39.0337 25.6719 39.2548 25.8929 39.525 25.8929C39.7951 25.8929 40.0162 25.6719 40.0162 25.4018C40.0162 21.048 38.6353 16.9125 36.0237 13.4453C35.8599 13.2298 35.5516 13.1861 35.336 13.347Z" fill="white" stroke="white" stroke-width="0.4" stroke-miterlimit="10"/>
<path d="M0.690418 25.8873C0.960588 25.8873 1.18165 25.6663 1.18165 25.3963C1.18165 21.0725 2.60344 16.9996 5.2915 13.6252C5.4607 13.4124 5.42524 13.1041 5.21238 12.935C4.99952 12.7659 4.69113 12.8013 4.52194 13.0141C1.6947 16.5659 0.199219 20.8488 0.199219 25.399C0.199219 25.669 0.420247 25.89 0.690418 25.89V25.8873Z" fill="white" stroke="white" stroke-width="0.4" stroke-miterlimit="10"/>
<path d="M27.824 18.8869C27.9195 18.6332 27.7885 18.3495 27.5347 18.2567C27.2809 18.164 26.9971 18.2922 26.9044 18.5459C26.263 20.2754 25.1551 21.7294 23.7824 22.6378C23.706 22.6896 23.6459 22.7605 23.6077 22.8424C23.3103 23.4916 23.1602 24.2036 23.1602 24.9565C23.1602 25.3521 23.2011 25.7558 23.283 26.1541C23.3294 26.386 23.5341 26.5469 23.7633 26.5469C23.796 26.5469 23.8288 26.5442 23.8615 26.536C24.1262 26.4815 24.2982 26.2223 24.2463 25.9577C24.1781 25.6222 24.1454 25.2839 24.1454 24.9538C24.1454 24.3891 24.2491 23.8572 24.451 23.3689C25.9383 22.3404 27.1336 20.7528 27.8268 18.8814L27.824 18.8869Z" fill="white" stroke="white" stroke-width="0.4" stroke-miterlimit="10"/>
<path d="M39.0146 33.6766C39.0119 33.6548 39.0064 33.6302 38.9982 33.6084C38.5807 32.258 37.8275 31.0523 36.8205 30.1275C35.8053 29.2 34.5772 28.5917 33.2701 28.368C31.4908 28.0652 29.6405 28.0461 27.8885 28.3025C27.0971 28.4171 26.3111 28.6081 25.5579 28.8645C24.9548 29.0691 24.3626 29.3201 23.8005 29.6038L21.7783 30.6322C20.8695 31.0932 19.8243 31.0932 18.9156 30.6322L16.8934 29.6038C16.5768 29.4428 16.2521 29.2955 15.9191 29.1591C16.4567 28.5835 16.9207 27.7869 17.2099 26.9167C17.5319 25.9428 17.6056 24.9635 17.4501 24.0551C18.2251 24.4043 19.0411 24.6143 19.8871 24.6744C19.898 24.6744 19.9089 24.6744 19.9225 24.6744C20.1791 24.6744 20.3947 24.4752 20.411 24.2161C20.4301 23.946 20.2255 23.7114 19.9553 23.6923C18.8746 23.6187 17.8485 23.264 16.9097 22.6366C16.907 22.6366 16.9043 22.6311 16.9016 22.6311C16.8988 22.6311 16.8961 22.6257 16.8906 22.6229C14.8084 21.2262 13.4221 18.6838 13.1847 15.8167C13.1847 15.8113 13.1847 15.8058 13.1847 15.8003C13.1683 15.5903 13.1574 15.3666 13.1546 15.132C13.3839 14.54 13.4139 13.4489 13.3511 12.1558C14.3445 12.0712 15.6708 12.2486 17.068 12.4368C18.2906 12.6005 19.5405 12.7696 20.6567 12.7696C21.1833 12.7696 21.68 12.7314 22.1303 12.6387C22.3732 12.595 22.6297 12.5377 22.8835 12.4832C23.3256 12.385 23.9942 12.2404 24.1634 12.2786C24.4199 12.3713 24.701 12.2376 24.7911 11.9812C24.8811 11.7248 24.7501 11.4438 24.4936 11.3538C24.117 11.2201 23.5576 11.332 22.6734 11.5257C22.4305 11.5775 22.1849 11.632 21.942 11.6784C20.6894 11.9376 18.9155 11.6975 17.199 11.4684C15.7608 11.2747 14.3909 11.0919 13.2911 11.1847C13.2529 10.6718 13.2038 10.1399 13.1519 9.60519C13.1355 9.42514 13.0182 9.26965 12.8517 9.19873C12.7317 9.14962 12.5734 9.13325 12.3932 9.14416C12.7698 4.70307 16.2193 1.18129 20.3265 1.18129C22.0976 1.18129 23.7759 1.80872 25.1786 2.99265C25.386 3.16724 25.6971 3.14268 25.8718 2.93536C26.0464 2.72803 26.0219 2.41978 25.8145 2.24246C24.2344 0.905771 22.335 0.199219 20.3292 0.199219C15.6189 0.199219 11.681 4.2775 11.3944 9.35967C10.8923 9.52334 10.4038 9.74432 10.12 9.89708C9.41593 10.279 9.0366 10.6664 8.96292 11.081C8.79918 11.9867 8.79918 13.0642 8.96292 14.1199C9.09937 15.0092 10.3056 15.6749 11.3699 15.8467C11.5391 15.874 11.7001 15.8876 11.8502 15.8876C11.9757 15.8876 12.0958 15.8767 12.2077 15.8576C12.2077 15.8631 12.2077 15.8685 12.2077 15.874C12.2077 15.8795 12.2077 15.8849 12.2077 15.8931C12.4642 19.0111 13.9679 21.7909 16.2384 23.3677C17.1335 25.4818 15.9491 27.937 14.893 28.7881C14.2135 28.5726 13.5149 28.4062 12.8108 28.3025C11.0588 28.0461 9.20853 28.0652 7.42922 28.368C6.12203 28.5917 4.89398 29.2 3.8788 30.1275C2.8718 31.0523 2.1186 32.2553 1.70107 33.6084C1.69288 33.6302 1.69013 33.652 1.68468 33.6766L0.350193 42.1005C0.306529 42.3678 0.489372 42.6188 0.759543 42.6624C1.02698 42.7034 1.27807 42.5233 1.32173 42.2532L2.65075 33.8648C3.01916 32.6918 3.67138 31.6525 4.54466 30.8532C5.42066 30.0539 6.4768 29.5274 7.59842 29.3364C9.27675 29.05 11.0233 29.0336 12.6743 29.2764C13.4057 29.3828 14.1316 29.5574 14.8303 29.7974C15.3897 29.9884 15.9382 30.2175 16.4567 30.4822L18.4789 31.5133C19.6715 32.1189 21.0387 32.1189 22.2313 31.5133L24.2534 30.4849C24.7747 30.2203 25.3205 29.9911 25.8827 29.8002C26.5813 29.5601 27.3072 29.3855 28.0386 29.2791C29.6896 29.0363 31.4362 29.0554 33.1145 29.3391C34.2361 29.5301 35.2922 30.0566 36.1682 30.8559C37.0415 31.6552 37.6938 32.6973 38.0622 33.8675L39.3912 42.256C39.4294 42.4988 39.6395 42.6706 39.8769 42.6706C39.9015 42.6706 39.9288 42.6706 39.9534 42.6652C40.2208 42.6215 40.4036 42.3705 40.3627 42.1032L39.0282 33.6793L39.0146 33.6766ZM12.2213 14.8265C12.2049 14.8592 11.9894 14.9547 11.5227 14.8783C11.2362 14.8319 10.9687 14.7446 10.7368 14.6383C10.6631 14.6028 10.5921 14.5673 10.5212 14.5291C10.1773 14.3382 9.95079 14.1172 9.92896 13.9726C9.78432 13.0233 9.78159 12.0603 9.92349 11.272C10.0436 10.9692 11.1761 10.4372 11.9348 10.2162C11.9785 10.2108 12.0221 10.1999 12.0603 10.1808C12.1122 10.1671 12.164 10.1562 12.2104 10.1453C12.4533 12.7914 12.456 14.3655 12.2213 14.8265Z" fill="white" stroke="white" stroke-width="0.4" stroke-miterlimit="10"/>
<path d="M29.2851 15.8485C30.3494 15.6766 31.5556 15.0137 31.6948 14.1217C31.8558 13.0687 31.8558 11.9885 31.6948 11.0855C31.6211 10.6709 31.2418 10.2835 30.5377 9.90157C30.2539 9.74607 29.7627 9.52512 29.2606 9.36144C29.1814 7.95109 28.8239 6.5653 28.2099 5.32681C28.0898 5.08403 27.7951 4.98582 27.5522 5.10585C27.3093 5.22588 27.2083 5.52049 27.3311 5.76328C27.8469 6.80262 28.1635 7.96201 28.2645 9.14594C28.0871 9.13503 27.9288 9.1514 27.806 9.2005C27.6395 9.27143 27.5249 9.42692 27.5058 9.60696C27.2711 12.0376 27.1129 14.4081 27.5577 15.2756C27.7624 15.6766 28.2072 15.8894 28.8075 15.8894C28.9576 15.8894 29.1187 15.8758 29.2878 15.8485H29.2851ZM28.2808 15.1338C28.0134 14.6127 28.0161 12.8287 28.2918 9.82792C28.2945 9.82792 28.3 9.82793 28.3054 9.83065C28.5347 9.87703 28.8266 9.96705 29.1295 10.0816C29.9128 10.3735 30.7751 10.8182 30.8843 11.091C31.048 11.9994 31.048 13.0933 30.8843 14.1681C30.8379 14.4654 30.041 15.041 29.0777 15.1965C28.551 15.2811 28.3054 15.1747 28.2863 15.1365L28.2808 15.1338Z" fill="white" stroke="white" stroke-width="0.4" stroke-miterlimit="10"/>
<path d="M20.5581 3.19296C17.649 3.19296 15.1192 5.04796 14.2677 7.80864C14.1886 8.0678 14.3332 8.34332 14.5925 8.42243C14.6416 8.43607 14.6907 8.44426 14.7371 8.44426C14.9472 8.44426 15.141 8.30786 15.2065 8.0978C15.9324 5.74904 18.0829 4.17228 20.5581 4.17228C22.6676 4.17228 24.5779 5.33167 25.5412 7.19485C25.6668 7.43491 25.9615 7.5304 26.2043 7.40491C26.4445 7.27943 26.54 6.98481 26.4145 6.74202C25.282 4.54875 23.0387 3.1875 20.5581 3.1875V3.19296Z" fill="white" stroke="white" stroke-width="0.4" stroke-miterlimit="10"/>
<path d="M23.2121 42.1461C23.2121 42.1461 23.2039 42.1461 23.2012 42.1461L21.6129 42.1788L17.6695 38.6134C17.4703 38.4334 17.1647 38.4497 16.9845 38.6489C16.8044 38.848 16.8208 39.1535 17.02 39.3336L21.25 43.1554L23.2231 43.1145C23.4905 43.1091 23.7034 42.8881 23.6979 42.6208C23.6924 42.3562 23.4768 42.1461 23.2149 42.1461H23.2121Z" fill="white" stroke="white" stroke-width="0.4" stroke-miterlimit="10"/>
</svg>
