<svg width="39" height="38" viewBox="0 0 39 38" fill="none" xmlns="http://www.w3.org/2000/svg">
<path d="M33.9598 7.24389C33.8202 7.07308 33.5701 7.04803 33.4012 7.18923C33.2322 7.33043 33.2074 7.58323 33.3471 7.75403C36.0142 11.0381 37.4829 15.1921 37.4829 19.4485C37.4829 26.9845 33.0272 33.6892 26.1319 36.5314C25.9292 36.6157 25.8323 36.8502 25.9134 37.0552C25.9765 37.2101 26.1251 37.3057 26.2806 37.3057C26.3301 37.3057 26.3819 37.2966 26.4315 37.2761C33.6264 34.3109 38.2781 27.3124 38.2781 19.4485C38.2781 15.0053 36.7463 10.6714 33.9621 7.24389H33.9598Z" fill="white" stroke="white" stroke-width="0.4" stroke-miterlimit="10"/>
<path d="M26.2526 22.0519C26.3472 21.7672 26.2571 21.4666 26.0229 21.2844L20.1255 16.6886C19.6028 16.2809 18.8707 16.2809 18.3459 16.6886L12.4485 21.2844C12.2142 21.4666 12.1241 21.7695 12.2187 22.0519C12.3133 22.3343 12.5679 22.5187 12.8629 22.5187H14.7417V36.7708C14.7417 36.9917 14.9196 37.1716 15.1381 37.1716C15.2462 37.1716 15.3431 37.1283 15.4129 37.0577C15.4873 36.9848 15.5346 36.8824 15.5346 36.7685V22.1156C15.5346 21.8947 15.3566 21.7148 15.1381 21.7148H13.1918L18.8279 17.3217C19.0667 17.1349 19.4001 17.1349 19.6366 17.3217L25.2727 21.7148H23.3265C23.1079 21.7148 22.93 21.8947 22.93 22.1156V36.7685C22.93 36.9894 23.1079 37.1693 23.3265 37.1693C23.545 37.1693 23.7229 36.9894 23.7229 36.7685V22.5164H25.6016C25.899 22.5164 26.1513 22.3343 26.2459 22.0496L26.2526 22.0519Z" fill="white" stroke="white" stroke-width="0.4" stroke-miterlimit="10"/>
<path d="M12.3432 36.533C8.3425 34.8842 5.06491 31.8575 3.06682 27.9882C4.69548 27.4758 6.41875 27.0385 8.20509 26.6855C8.90566 29.4753 10.0072 31.985 11.4061 33.9618C11.4827 34.0711 11.6066 34.1304 11.7305 34.1304C11.8093 34.1304 11.8904 34.1053 11.9602 34.0552C12.1382 33.9254 12.1787 33.6749 12.0526 33.495C10.7168 31.6093 9.66255 29.2089 8.98676 26.5352C10.0568 26.3393 11.1493 26.1754 12.2418 26.0455C12.4603 26.0205 12.6158 25.8201 12.591 25.5992C12.5662 25.3783 12.368 25.2211 12.1495 25.2462C11.0254 25.3783 9.90358 25.5491 8.8043 25.7518C8.36278 23.7271 8.13526 21.6092 8.13526 19.4479C8.13526 17.2866 8.37179 15.1117 8.8043 13.144C12.1495 13.7544 15.6726 14.0709 19.2408 14.0709C22.8089 14.0709 26.3298 13.7612 29.675 13.1509C30.112 15.1436 30.3463 17.2684 30.3463 19.4479C30.3463 21.6274 30.1187 23.7249 29.6772 25.7518C28.5937 25.5536 27.4719 25.3805 26.3321 25.2439C26.1136 25.2166 25.9176 25.3737 25.8905 25.5946C25.8635 25.8155 26.019 26.0137 26.2375 26.041C27.348 26.1754 28.4383 26.3416 29.4948 26.5329C28.819 29.2089 27.7625 31.607 26.4267 33.495C26.2983 33.6749 26.3411 33.9254 26.519 34.0552C26.5889 34.1053 26.67 34.1304 26.7488 34.1304C26.8727 34.1304 26.9943 34.0711 27.0709 33.9618C28.4721 31.9828 29.5736 29.473 30.2742 26.6809C31.0919 26.8404 31.9321 27.0271 32.7836 27.2389C32.8152 27.248 32.8467 27.2503 32.8782 27.2503C33.0562 27.2503 33.2184 27.1273 33.2634 26.9451C33.3153 26.731 33.1868 26.5124 32.9728 26.46C32.1191 26.2482 31.2766 26.0592 30.4544 25.8998C30.9049 23.8251 31.1369 21.6593 31.1369 19.4502C31.1369 17.2411 30.8982 15.0434 30.4499 12.9983C31.2991 12.8297 32.1416 12.6475 32.9706 12.4403C33.1846 12.3879 33.313 12.1693 33.2612 11.9552C33.2071 11.7411 32.9931 11.609 32.7814 11.6614C31.9569 11.8687 31.1167 12.0486 30.2719 12.2171C29.5511 9.33163 28.4022 6.7445 26.8907 4.69255C26.7601 4.51491 26.51 4.47847 26.3343 4.61056C26.1586 4.74265 26.1226 4.99544 26.2532 5.17308C27.6972 7.13166 28.7965 9.60948 29.4903 12.372C26.2037 12.9709 22.7707 13.2738 19.2385 13.2738C15.7064 13.2738 12.2734 12.9641 8.98676 12.3674C10.6132 5.89502 14.3998 1.28554 18.8398 1.02364V10.7892C18.8398 11.0101 19.0178 11.19 19.2363 11.19C19.4548 11.19 19.6327 11.0101 19.6327 10.7892V1.01225C23.8654 1.10563 27.9427 2.67932 31.1482 5.47826C31.3149 5.62401 31.5649 5.60351 31.7091 5.43726C31.8533 5.26873 31.833 5.01594 31.6686 4.87019C28.2175 1.85945 23.8024 0.199219 19.2363 0.199219C11.7688 0.199219 5.29469 4.57185 2.17704 10.9144C2.15226 10.9486 2.12973 10.9873 2.11622 11.0306C2.11622 11.0329 2.11622 11.0351 2.11622 11.0397C0.890781 13.5813 0.199219 16.4349 0.199219 19.4479C0.199219 22.4609 0.85248 25.2667 2.13874 27.9199C4.1999 32.1695 7.71853 35.49 12.0458 37.2755C12.0954 37.296 12.145 37.3051 12.1945 37.3051C12.3499 37.3051 12.4986 37.2117 12.5617 37.0545C12.645 36.8496 12.5459 36.615 12.3432 36.5307V36.533ZM14.8909 1.53834C11.8634 3.4673 9.43954 7.34801 8.21411 12.2194C6.43678 11.8687 4.71576 11.4337 3.07133 10.9167C5.47039 6.28674 9.75716 2.81141 14.8932 1.53834H14.8909ZM2.71092 11.6455C4.4094 12.1852 6.18898 12.6384 8.02713 13.0005C7.58111 15.0183 7.33783 17.1887 7.33783 19.4502C7.33783 21.7116 7.56984 23.8274 8.02037 25.9043C6.17095 26.2687 4.38912 26.7242 2.70415 27.2617C1.56882 24.8089 0.989897 22.1831 0.989897 19.4524C0.989897 16.7218 1.60937 14.0185 2.70866 11.6478L2.71092 11.6455Z" fill="white" stroke="white" stroke-width="0.4" stroke-miterlimit="10"/>
</svg>
