<svg width="53" height="48" viewBox="0 0 53 48" fill="none" xmlns="http://www.w3.org/2000/svg">
<path d="M38.6241 22.2938C38.3789 22.1727 38.0814 22.2718 37.9602 22.5168C37.1228 24.2015 36.3927 25.6522 35.7316 26.9515C33.9272 30.5025 32.5333 33.0901 31.3487 35.0969C31.3432 35.1052 31.3349 35.1244 31.3267 35.1382C31.0512 35.6062 30.784 36.0439 30.525 36.4568C30.379 36.688 30.4506 36.9936 30.682 37.1395C30.7647 37.1918 30.8556 37.2165 30.9465 37.2165C31.1118 37.2165 31.2716 37.1339 31.368 36.9853C31.6352 36.5614 31.9079 36.1099 32.1944 35.6282C32.1999 35.6199 32.2137 35.5924 32.2165 35.5841C33.2964 33.7563 34.5443 31.4495 36.1118 28.3939C38.0043 33.8389 36.9272 39.683 35.6352 43.7323C35.4093 44.4425 34.8831 45.0179 34.1944 45.3069C33.5057 45.5987 32.7234 45.5767 32.0539 45.2436L27.616 43.0469C27.3708 42.9258 27.0733 43.0249 26.9521 43.2699C26.8308 43.5149 26.93 43.8121 27.1752 43.9333L31.6132 46.13C32.1118 46.375 32.6517 46.4988 33.1917 46.4988C33.6627 46.4988 34.1366 46.4052 34.5801 46.2181C35.5332 45.8134 36.2633 45.0179 36.5773 44.0324C37.985 39.6224 39.1393 33.1452 36.7178 27.1992C37.3542 25.9495 38.0511 24.5593 38.8473 22.9572C38.9685 22.7122 38.8693 22.4149 38.6241 22.2938Z" fill="white" stroke="white" stroke-width="0.4" stroke-miterlimit="10"/>
<path d="M39.0704 0.589182C34.1173 -1.86077 24.627 7.80692 21.7676 13.5795C20.8144 15.5009 20.0128 17.1415 19.313 18.5895C13.112 20.2687 8.65473 25.1108 5.9991 28.9041C5.40682 29.7519 5.21399 30.8145 5.47018 31.8165C5.72638 32.8213 6.40957 33.6636 7.34069 34.1233L11.7787 36.32C11.8503 36.3558 11.9247 36.3723 11.9991 36.3723C12.1809 36.3723 12.3572 36.2705 12.4426 36.097C12.5638 35.8521 12.4646 35.5548 12.2194 35.4336L7.78146 33.2369C7.10929 32.9038 6.61893 32.2982 6.43436 31.5743C6.24979 30.8503 6.38753 30.085 6.81728 29.4739C9.25803 25.9917 13.258 21.5927 18.74 19.7979C17.2524 22.9031 16.1726 25.298 15.3709 27.2689C15.3654 27.28 15.3599 27.2882 15.3571 27.2992C14.6326 29.0775 14.1258 30.5365 13.8007 31.7642C13.7263 31.9899 13.8255 32.2432 14.0431 32.356C14.1147 32.3946 14.1946 32.4111 14.2718 32.4111C14.4508 32.4111 14.6244 32.3148 14.7125 32.1441C14.7291 32.111 14.7428 32.0753 14.7538 32.0395C15.0679 30.8503 15.5638 29.4216 16.2717 27.6819C16.2772 27.6708 16.2855 27.6543 16.291 27.6433C17.1698 25.4824 18.3874 22.8067 20.1174 19.2254C20.8364 17.7306 21.6711 16.0294 22.6656 14.0227C25.346 8.61623 34.4286 -0.602763 38.6407 1.48108C42.2081 3.2456 41.4699 13.0151 39.3679 19.2419C39.2798 19.5006 39.4203 19.7814 39.6792 19.8695C39.9382 19.9576 40.2192 19.8172 40.3073 19.5585C42.5332 12.9628 43.3431 2.7033 39.0787 0.591935L39.0704 0.589182Z" fill="white" stroke="white" stroke-width="0.4" stroke-miterlimit="10"/>
<path d="M22.8102 33.3931C21.4025 32.6966 20.229 32.1874 19.0086 32.4929C17.6891 32.8233 16.5651 34.0427 15.3723 36.4514C14.7001 37.8085 14.2897 40.1786 14.331 42.4882C14.3558 44.0077 14.5982 46.6559 15.915 47.3083C16.1491 47.4239 16.4108 47.4735 16.6946 47.4735C18.0004 47.4735 19.7028 46.3861 20.7138 45.6456C22.5761 44.2775 24.2152 42.5157 24.8874 41.1586C27.3832 36.1238 25.6862 34.8163 22.813 33.3931H22.8102ZM23.9976 40.7182C23.3887 41.9432 21.8709 43.5645 20.1243 44.8473C18.2042 46.2595 16.8241 46.6531 16.3558 46.4192C15.1244 45.8108 14.8571 39.7244 16.2621 36.8891C17.3006 34.7943 18.2511 33.7014 19.2483 33.4537C19.4136 33.4124 19.5789 33.3931 19.7497 33.3931C20.5072 33.3931 21.3392 33.7702 22.3695 34.2822C24.7827 35.4769 26.2372 36.1954 23.9948 40.7182H23.9976Z" fill="white" stroke="white" stroke-width="0.4" stroke-miterlimit="10"/>
<path d="M30.63 17.6246C28.3959 16.5207 25.6796 17.4347 24.5722 19.6671C23.4675 21.8996 24.3821 24.6139 26.6163 25.7177C27.2499 26.0315 27.9331 26.1884 28.619 26.1884C29.1066 26.1884 29.5942 26.1086 30.068 25.9489C31.2113 25.5636 32.1369 24.7542 32.6741 23.6752C33.7787 21.4427 32.8641 18.7285 30.63 17.6218V17.6246ZM31.787 23.2375C31.3683 24.0826 30.6465 24.713 29.754 25.013C28.8614 25.3131 27.9028 25.2497 27.0598 24.8313C25.316 23.9697 24.5998 21.8501 25.4648 20.1076C26.0791 18.8661 27.3325 18.1476 28.6328 18.1476C29.1589 18.1476 29.6906 18.266 30.192 18.5137C31.9358 19.3754 32.652 21.495 31.787 23.2375Z" fill="white" stroke="white" stroke-width="0.4" stroke-miterlimit="10"/>
<path d="M47.0237 25.3829C46.9494 25.3829 46.875 25.3664 46.8034 25.3306C46.5582 25.2095 46.4563 24.9122 46.5802 24.6672L49.0733 19.6379C49.1945 19.3929 49.492 19.2938 49.7372 19.4149C49.9824 19.536 50.0843 19.8333 49.9604 20.0783L47.4673 25.1076C47.3819 25.281 47.2056 25.3829 47.0237 25.3829Z" fill="white" stroke="white" stroke-width="0.4" stroke-miterlimit="10"/>
<path d="M42.0784 45.748C42.004 45.748 41.9297 45.7315 41.858 45.6957C41.6129 45.5746 41.5109 45.2773 41.6349 45.0323L50.8993 26.3383C51.0205 26.0933 51.318 25.9915 51.5632 26.1153C51.8084 26.2365 51.9103 26.5338 51.7863 26.7787L42.5219 45.4727C42.4366 45.6462 42.2602 45.748 42.0784 45.748Z" fill="white" stroke="white" stroke-width="0.4" stroke-miterlimit="10"/>
<path d="M17.6097 10.3602C17.5353 10.3602 17.4609 10.3437 17.3893 10.3079C17.1441 10.1867 17.0422 9.88945 17.1662 9.64445L20.8135 2.28632C20.9347 2.04132 21.2322 1.94222 21.4774 2.06335C21.7226 2.18447 21.8245 2.48177 21.7005 2.72676L18.0532 10.0849C17.9678 10.2583 17.7915 10.3602 17.6097 10.3602Z" fill="white" stroke="white" stroke-width="0.4" stroke-miterlimit="10"/>
<path d="M0.695614 28.0652C0.621234 28.0652 0.546855 28.0487 0.47523 28.0129C0.230053 27.8918 0.128126 27.5945 0.252092 27.3495L3.48622 20.8227C3.60743 20.5777 3.90495 20.4758 4.15013 20.5997C4.3953 20.7208 4.49723 21.0181 4.37327 21.2631L1.13914 27.7899C1.05374 27.9633 0.87743 28.0652 0.695614 28.0652Z" fill="white" stroke="white" stroke-width="0.4" stroke-miterlimit="10"/>
</svg>
