<svg width="51" height="52" viewBox="0 0 51 52" fill="none" xmlns="http://www.w3.org/2000/svg">
<path d="M12.8402 15.492C12.9658 15.492 13.094 15.4429 13.1896 15.3474C15.6238 12.8977 18.6585 11.0809 21.9715 10.0934C23.2541 9.70875 24.5831 9.44959 25.9176 9.31865C27.4977 9.16861 29.0996 9.20408 30.6824 9.42504C30.9526 9.46323 31.1982 9.275 31.2364 9.00494C31.2746 8.7376 31.0863 8.48935 30.8161 8.45116C29.1569 8.22202 27.4786 8.18382 25.8221 8.34205C24.4221 8.47844 23.033 8.75124 21.6876 9.15225C18.2191 10.1861 15.0398 12.0875 12.4909 14.6545C12.2999 14.8482 12.2999 15.1592 12.4909 15.3501C12.5864 15.4456 12.712 15.492 12.8375 15.492H12.8402Z" fill="white" stroke="white" stroke-width="0.4" stroke-miterlimit="10"/>
<path d="M7.8538 24.6734C7.8538 24.3979 7.63276 24.1797 7.36259 24.1797C7.13062 24.1797 6.93414 24.3434 6.88501 24.5616C5.53962 29.8156 6.21641 35.3479 8.78985 40.1436C11.3797 44.9666 15.6642 48.603 20.852 50.3816C23.1389 51.1645 25.5104 51.5546 27.8764 51.5546C30.8292 51.5546 33.7711 50.949 36.5328 49.7433C41.4696 47.5882 45.3993 43.7091 47.6016 38.8206C47.6016 38.8206 47.6016 38.8206 47.6016 38.8178C47.6043 38.8124 47.6071 38.8069 47.6098 38.7987C47.8772 38.1986 48.1283 37.5684 48.3493 36.9246C49.1953 34.4613 49.5883 31.9025 49.5174 29.3191C49.4382 26.3048 48.7369 23.3913 47.4406 20.6552C47.3233 20.4097 47.0312 20.306 46.7856 20.4233C46.54 20.5406 46.4363 20.8325 46.5537 21.078C47.7217 23.5359 48.3739 26.1493 48.5104 28.8499C47.4624 28.7517 46.4172 27.9661 45.4348 27.1068C45.3284 27.014 45.1919 26.9758 45.0609 26.9895C44.9408 27.0031 44.8262 27.0577 44.7416 27.1531C44.5642 27.3577 44.5833 27.6687 44.788 27.846C45.9342 28.8472 47.1759 29.7583 48.5376 29.8347C48.5458 32.1344 48.1747 34.4095 47.4215 36.6055C47.2496 37.0992 47.0613 37.5821 46.8593 38.0513C45.9178 37.9722 44.9163 38.4005 43.942 38.8178C43.2652 39.107 42.5639 39.4071 41.9417 39.5053C41.2267 39.6171 39.8977 40.8447 39.3573 42.5879C39.2782 42.847 39.4228 43.1225 39.6821 43.2017C39.7312 43.2153 39.7776 43.2235 39.8267 43.2235C39.9004 43.2235 39.9713 43.2017 40.0368 43.1689C40.1569 43.1116 40.2552 43.0134 40.2961 42.877C40.7628 41.3685 41.8325 40.5228 42.0918 40.4737C42.834 40.3591 43.5927 40.0345 44.3268 39.7208C45.0718 39.4016 45.7868 39.0961 46.4063 39.0361C45.282 41.3276 43.751 43.3708 41.9007 45.0785C40.2197 46.6307 38.2766 47.9101 36.1344 48.8458C31.3859 50.919 26.0698 51.1372 21.1658 49.4541C16.2127 47.7573 12.1247 44.2846 9.65221 39.6799C7.19066 35.0997 6.54662 29.8129 7.83471 24.7962C7.84562 24.7553 7.85108 24.7144 7.85108 24.6734H7.8538Z" fill="white" stroke="white" stroke-width="0.4" stroke-miterlimit="10"/>
<path d="M36.0114 9.86508C33.5252 10.9699 31.4621 12.0174 29.8629 12.9858L25.7094 11.9902C25.1527 11.8565 24.5714 12.042 24.1921 12.4703C23.8127 12.9013 23.7063 13.5014 23.911 14.0361C24.0775 14.4699 24.3449 14.8654 24.6833 15.1818L26.0669 16.4749C26.1897 16.5895 26.2825 16.7286 26.3425 16.8868L26.6427 17.6697C26.7027 17.828 26.7246 17.9916 26.7109 18.1608L26.539 20.0485C26.4981 20.5095 26.5636 20.9842 26.7273 21.4179C26.932 21.9526 27.4123 22.3291 27.9799 22.3973C28.5503 22.4655 29.107 22.2172 29.4318 21.7453L31.866 18.2371C33.6972 17.8989 35.9349 17.3042 38.5302 16.4722L39.8729 25.5671C39.9275 25.9409 40.1458 26.2655 40.4678 26.4619C40.6615 26.5792 40.8826 26.6392 41.1009 26.6392C41.2346 26.6392 41.3684 26.6174 41.4966 26.5737C42.168 26.3391 42.6674 25.7881 42.8256 25.0952L45.3964 14.0088C50.6524 11.7774 50.6824 9.43679 50.2212 8.23104C49.76 7.02529 48.1799 5.2985 42.7738 7.13441L33.4679 0.576424C32.8867 0.167232 32.1498 0.0853932 31.4894 0.358188C31.1565 0.497313 30.9027 0.778291 30.7962 1.12747C30.6844 1.48756 30.7417 1.87493 30.9491 2.19137L36.0086 9.87054L36.0114 9.86508ZM31.7377 1.41118C31.7541 1.36207 31.7869 1.2966 31.8687 1.26114C32.2126 1.11928 32.5974 1.1602 32.903 1.37571L42.4136 8.081C42.5446 8.17375 42.7138 8.19558 42.8639 8.14102C46.3788 6.90526 48.7257 7.06621 49.3043 8.58022C49.8828 10.0942 48.2372 11.7774 44.7878 13.1986C44.6404 13.2586 44.5313 13.3869 44.4958 13.5424L41.8705 24.8715C41.7859 25.2343 41.5266 25.5235 41.1746 25.6435C41.0927 25.6735 41.0218 25.6462 40.9781 25.619C40.9072 25.5753 40.858 25.5044 40.8471 25.4226L39.4199 15.7547C39.398 15.6101 39.3162 15.4846 39.1906 15.4083C39.1115 15.3592 39.0214 15.3346 38.9314 15.3346C38.8795 15.3346 38.8277 15.3428 38.7786 15.3592C35.894 16.303 33.4434 16.9577 31.4921 17.3042C31.3639 17.326 31.2492 17.3997 31.1756 17.5088L28.624 21.1833C28.5039 21.3552 28.3074 21.4452 28.0973 21.4179C27.8871 21.3934 27.7179 21.2597 27.6415 21.0633C27.5296 20.7687 27.4832 20.4468 27.5133 20.1331L27.6852 18.2453C27.7125 17.9316 27.6688 17.6097 27.5569 17.3178L27.2567 16.5349C27.1448 16.2403 26.9647 15.973 26.7328 15.7574L25.3492 14.4644C25.1199 14.2489 24.9371 13.9788 24.8252 13.6842C24.7488 13.4878 24.787 13.275 24.9289 13.1168C25.0681 12.9586 25.2755 12.8931 25.4802 12.9422L29.8302 13.9843C29.9421 14.0116 30.0621 13.9979 30.1658 13.9461C30.1795 13.9406 30.1904 13.9324 30.204 13.9243C31.896 12.8849 34.1611 11.7419 36.9365 10.528C37.0702 10.4707 37.1685 10.3561 37.2094 10.217C37.2503 10.0779 37.2285 9.92782 37.1493 9.80779L31.7705 1.64305C31.7241 1.57485 31.7132 1.48756 31.7377 1.40845V1.41118Z" fill="white" stroke="white" stroke-width="0.4" stroke-miterlimit="10"/>
<path d="M8.46812 45.6701C8.21432 45.5719 7.93051 45.6974 7.83227 45.9511C7.73402 46.2048 7.85956 46.4885 8.11335 46.5867C8.7301 46.8268 9.38234 47.0205 10.0509 47.1651C10.0864 47.1732 10.1219 47.176 10.1546 47.176C10.3811 47.176 10.5831 47.0177 10.6349 46.7886C10.6922 46.524 10.523 46.2621 10.2583 46.2048C9.63886 46.0711 9.03575 45.8911 8.46812 45.6701Z" fill="white" stroke="white" stroke-width="0.4" stroke-miterlimit="10"/>
<path d="M4.47243 23.5328C4.61161 23.5328 4.75079 23.4728 4.84903 23.3582C5.65409 22.4062 6.57103 21.5769 7.5753 20.8976C7.79907 20.7448 7.85912 20.4393 7.70629 20.2156C7.55347 19.9919 7.24782 19.9319 7.02404 20.0847C5.94336 20.8158 4.95819 21.7051 4.09583 22.7253C3.92117 22.9327 3.94846 23.2409 4.15314 23.4182C4.24592 23.4946 4.35781 23.5328 4.4697 23.5328H4.47243Z" fill="white" stroke="white" stroke-width="0.4" stroke-miterlimit="10"/>
<path d="M1.09978 37.9013C1.13526 37.9013 1.17347 37.8958 1.21167 37.8876C1.47639 37.8249 1.64013 37.563 1.58009 37.2984C1.31538 36.1581 1.17893 34.9605 1.17893 33.7439V33.6266C1.17893 33.3565 0.963337 33.1328 0.693166 33.1328H0.690434C0.420264 33.1328 0.201948 33.351 0.199219 33.6211V33.7466C0.199219 35.0396 0.341126 36.3109 0.624941 37.5248C0.676792 37.7512 0.878738 37.904 1.10252 37.904L1.09978 37.9013Z" fill="white" stroke="white" stroke-width="0.4" stroke-miterlimit="10"/>
<path d="M10.7228 19.3086C10.7746 19.3086 10.8238 19.3004 10.8756 19.284C11.9618 18.9294 13.1843 18.6784 14.5134 18.5339C14.7835 18.5038 14.9773 18.2638 14.95 17.9937C14.92 17.7237 14.6798 17.53 14.4097 17.5572C13.0151 17.7073 11.7243 17.9746 10.5727 18.3511C10.3162 18.4356 10.1743 18.7112 10.2589 18.9703C10.3271 19.1776 10.5181 19.3086 10.7255 19.3086H10.7228Z" fill="white" stroke="white" stroke-width="0.4" stroke-miterlimit="10"/>
<path d="M2.88228 40.7351C2.75129 40.4977 2.4511 40.4104 2.21368 40.5414C1.97626 40.6723 1.88892 40.9697 2.01991 41.2097C2.6776 42.4018 3.49903 43.4521 4.46237 44.3305C4.55515 44.4178 4.67523 44.4587 4.79257 44.4587C4.92629 44.4587 5.05729 44.4041 5.15553 44.2978C5.33838 44.0986 5.32473 43.7876 5.12551 43.6049C4.24132 42.7974 3.48812 41.8317 2.87955 40.7351H2.88228Z" fill="white" stroke="white" stroke-width="0.4" stroke-miterlimit="10"/>
<path d="M1.02534 30.3125C1.06355 30.3206 1.09903 30.3261 1.13723 30.3261C1.36101 30.3261 1.56296 30.1733 1.61481 29.9442C1.89589 28.7275 2.31069 27.5518 2.84558 26.4524C2.96292 26.2096 2.86195 25.915 2.61907 25.795C2.37346 25.6777 2.08146 25.7786 1.96139 26.0214C1.39375 27.1862 0.954387 28.4329 0.656926 29.7232C0.596888 29.9878 0.76063 30.2497 1.02534 30.3125Z" fill="white" stroke="white" stroke-width="0.4" stroke-miterlimit="10"/>
<path d="M19.2836 18.4569C19.2836 18.4569 19.3054 18.4569 19.3136 18.4569C19.5702 18.4569 19.7885 18.2578 19.8048 17.9959C19.8212 17.7259 19.6165 17.4913 19.3464 17.4749C19.008 17.4531 18.6559 17.4367 18.293 17.4258C18.2875 17.4258 18.2821 17.4258 18.2766 17.4258C18.0119 17.4258 17.7936 17.6358 17.7854 17.9004C17.7772 18.1705 17.9901 18.3997 18.2602 18.4078C18.6123 18.4188 18.9534 18.4351 19.2809 18.4569H19.2836Z" fill="white" stroke="white" stroke-width="0.4" stroke-miterlimit="10"/>
<path d="M21.3102 18.6494C22.4591 18.794 23.185 18.944 23.1905 18.9468C23.226 18.9549 23.2587 18.9577 23.2942 18.9577C23.5207 18.9577 23.7254 18.7994 23.7745 18.5676C23.8318 18.303 23.6626 18.0411 23.3952 17.9865C23.3652 17.9811 22.6256 17.8256 21.433 17.6755C21.1683 17.6428 20.9173 17.8338 20.8845 18.1011C20.8518 18.3712 21.0428 18.6167 21.3102 18.6494Z" fill="white" stroke="white" stroke-width="0.4" stroke-miterlimit="10"/>
<path d="M31.7111 32.7105C31.722 32.686 31.7302 32.6614 31.7411 32.6368C31.7793 32.5386 31.8202 32.4404 31.8584 32.3422C31.8639 32.3259 31.8721 32.3068 31.8775 32.2904C31.913 32.2004 31.9485 32.1104 31.9812 32.0203C31.9867 32.0067 31.9922 31.9931 31.9976 31.9767C32.0331 31.8812 32.0686 31.783 32.1041 31.6875C32.1122 31.6657 32.1177 31.6466 32.1259 31.6248C32.1614 31.5266 32.1941 31.4311 32.2269 31.3329C32.2296 31.322 32.2323 31.3138 32.2378 31.3029C32.2678 31.2129 32.2951 31.1228 32.3224 31.0328C32.3278 31.0165 32.3333 30.9974 32.3387 30.981C32.366 30.8882 32.3933 30.7955 32.4179 30.7027C32.4233 30.6836 32.4288 30.6645 32.4315 30.6482C32.4561 30.5554 32.4779 30.4627 32.4998 30.3727C32.4998 30.3727 32.4998 30.3672 32.4998 30.3645C32.5189 30.2717 32.538 30.1817 32.5516 30.0917C32.5543 30.0726 32.5571 30.0535 32.5598 30.0344C32.5734 29.9471 32.5844 29.8598 32.5953 29.7752C32.5953 29.7616 32.5953 29.748 32.598 29.7316C32.6062 29.6525 32.6116 29.5734 32.6116 29.497C32.6116 29.4861 32.6116 29.4724 32.6116 29.4615C32.6116 29.3797 32.6116 29.2978 32.6062 29.2187C32.6062 29.2024 32.6062 29.1833 32.6035 29.1669C32.598 29.0878 32.5898 29.0087 32.5762 28.9323C32.5762 28.9241 32.5734 28.9187 32.5707 28.9105C32.5571 28.8395 32.5407 28.7686 32.5216 28.7004C32.5189 28.6868 32.5134 28.6731 32.5107 28.6595C32.4888 28.5886 32.4616 28.5176 32.4315 28.4522C32.4261 28.4385 32.4179 28.4249 32.4124 28.4113C32.3797 28.3458 32.3469 28.2803 32.306 28.2176C32.306 28.2148 32.3033 28.2121 32.3005 28.2067C32.1259 27.9366 31.8721 27.7047 31.5173 27.5192C31.1462 27.3228 30.805 27.1155 30.4912 26.8973C30.2047 26.6954 29.94 26.4853 29.6916 26.2589C29.4924 26.0761 29.1813 26.087 28.9985 26.2889C28.9766 26.3107 28.9602 26.3353 28.9439 26.3626C28.8211 26.559 28.8511 26.8209 29.0285 26.9845C29.6097 27.5165 30.2729 27.9775 31.0588 28.3922C32.0986 28.9405 31.591 30.359 30.6768 32.6314C29.9482 34.44 29.124 36.4914 29.4624 38.3001C29.8117 40.1769 29.0203 44.0288 27.634 45.6819C27.241 46.1511 26.848 46.3884 26.4632 46.3884H26.455C25.9393 46.383 25.4999 46.1866 25.1096 45.7883C24.0153 44.6644 23.6578 42.3374 23.6906 40.537C23.7179 38.9793 23.1857 37.6072 22.1923 36.6688C21.2181 35.7522 19.8618 35.3075 18.3718 35.4221C17.4275 35.493 16.5379 35.1902 15.801 34.5382C14.6658 33.5343 13.959 31.7966 13.8662 29.7752C13.7352 26.9218 19.0076 25.5033 20.6286 25.1377C20.8933 25.0777 21.0598 24.8158 20.9998 24.5512C20.9397 24.2866 20.6777 24.1202 20.413 24.1802C18.0961 24.704 12.7227 26.3026 12.8865 29.8216C12.9902 32.1076 13.8171 34.0963 15.1515 35.2748C15.3862 35.4821 15.6346 35.6621 15.8911 35.8149C16.1476 35.9677 16.4178 36.0904 16.6934 36.1859C17.2474 36.3769 17.8369 36.4505 18.4482 36.4041C19.6626 36.3114 20.7514 36.6606 21.5183 37.3835C21.7148 37.569 21.8894 37.779 22.0423 38.0082C22.1923 38.2373 22.3179 38.4856 22.4189 38.7529C22.6208 39.2849 22.719 39.8823 22.7081 40.5206C22.6918 41.4918 22.76 44.7899 24.4056 46.4757C24.9786 47.065 25.6664 47.3678 26.4469 47.3732H26.4632C27.1509 47.3732 27.7977 47.0186 28.3844 46.3148C28.7883 45.8319 29.1431 45.2127 29.4406 44.5198C29.5906 44.1733 29.7244 43.8105 29.8444 43.4368C29.9645 43.0631 30.071 42.6784 30.1583 42.2938C30.2483 41.9091 30.322 41.5218 30.3793 41.1426C30.4366 40.7634 30.4776 40.3897 30.4994 40.0296C30.5458 39.3121 30.524 38.6547 30.423 38.12C30.1364 36.5924 30.906 34.6828 31.5828 32.9969C31.621 32.9042 31.6592 32.8087 31.6974 32.716L31.7111 32.7105Z" fill="white" stroke="white" stroke-width="0.4" stroke-miterlimit="10"/>
</svg>
