<svg width="42" height="41" viewBox="0 0 42 41" fill="none" xmlns="http://www.w3.org/2000/svg">
<path d="M31.0996 11.0519C30.8655 11.0877 30.7055 11.3077 30.7413 11.5443L31.8566 18.6678C31.8901 18.8806 32.0716 19.0312 32.2817 19.0312C32.3032 19.0312 32.3271 19.0312 32.3486 19.0264C32.5827 18.9905 32.7427 18.7706 32.7068 18.534L31.5915 11.4105C31.5557 11.1762 31.336 11.016 31.0996 11.0519Z" fill="white" stroke="white" stroke-width="0.4" stroke-miterlimit="10"/>
<path d="M35.506 36.3984L35.3651 35.5092C35.3269 35.2749 35.1072 35.1147 34.8731 35.1506C34.6391 35.1888 34.4791 35.4088 34.5149 35.643L34.6558 36.5323C34.7012 36.8143 34.6295 37.0964 34.4552 37.3259C34.2809 37.5554 34.0253 37.7012 33.7387 37.7323L13.4914 39.9363C12.935 39.9984 12.4358 39.6135 12.3475 39.0613L8.01765 11.4351C8.34961 11.4948 8.68636 11.4996 9.01355 11.4518C9.01355 11.4518 9.01592 11.4518 9.01831 11.4518L30.1755 9.24063C31.4723 9.03027 32.3822 7.50517 32.4897 5.34661C32.4921 5.26055 32.4969 5.1721 32.4969 5.08844C32.4969 2.28446 30.4669 0.369714 27.3216 0.207165C27.0231 0.192822 26.7484 0.197603 26.4833 0.223898L11.4304 1.79681C11.194 1.82071 11.022 2.03346 11.0483 2.27011C11.0722 2.50677 11.2871 2.67888 11.5212 2.65258L26.5693 1.07967C26.7914 1.05816 27.0255 1.05577 27.281 1.06533C29.9677 1.20398 31.6371 2.74581 31.6371 5.08844C31.6371 5.16254 31.6347 5.24143 31.6323 5.31314C31.5487 6.98884 30.892 8.25577 30.0633 8.38964L10.5181 10.4311C11.0387 9.66852 11.3206 8.59282 11.3731 7.55537C11.3755 7.46932 11.3803 7.38087 11.3803 7.29481C11.3803 4.49083 9.35028 2.57609 6.20739 2.41354C5.94708 2.40159 5.69153 2.40398 5.45032 2.42549C5.45032 2.42549 5.45033 2.42549 5.44794 2.42549C5.44555 2.42549 5.44077 2.42549 5.43838 2.42549C5.43838 2.42549 5.43361 2.42549 5.43122 2.42549C5.31181 2.43266 5.19717 2.44701 5.06343 2.46374L5.02044 2.47091C2.35758 2.86294 0.334767 4.99999 0.205803 7.55537C0.191474 7.83505 0.201021 8.10995 0.22968 8.36812C0.22968 8.37768 0.232073 8.38725 0.234461 8.3992L3.70453 30.5586C3.83349 31.3833 4.54996 31.9785 5.36195 31.9785C5.44315 31.9785 5.52675 31.9713 5.60795 31.9594L7.7239 31.6438C7.95795 31.608 8.12035 31.3904 8.08692 31.1538C8.05109 30.9195 7.83377 30.7594 7.59733 30.7904L5.48136 31.106C5.03954 31.1729 4.62162 30.8645 4.55236 30.4223L1.08467 8.2725V8.25577C1.05839 8.04541 1.05361 7.8231 1.06316 7.59362C1.17063 5.4494 2.88538 3.65179 5.14224 3.31952L5.18762 3.31234C5.29031 3.298 5.39062 3.28605 5.49332 3.28127C5.4957 3.28127 5.49809 3.28127 5.50047 3.28127C5.50286 3.28127 5.50526 3.28127 5.50765 3.28127C5.71542 3.26214 5.93752 3.25975 6.1644 3.26932C8.85115 3.40796 10.5205 4.94979 10.5205 7.29242C10.5205 7.36892 10.5181 7.44541 10.5157 7.51713C10.4321 9.19521 9.77061 10.4621 8.91085 10.6008C8.49769 10.6653 8.06542 10.608 7.65704 10.4382C7.51375 10.3785 7.34896 10.4 7.22477 10.4956C7.10297 10.5912 7.04087 10.7466 7.06475 10.902L11.4997 39.1976C11.6477 40.1347 12.4502 40.8064 13.3744 40.8064C13.4437 40.8064 13.5153 40.8016 13.587 40.7944L33.8343 38.5904C34.3573 38.5331 34.8206 38.2701 35.1406 37.8518C35.4582 37.4359 35.5872 36.9195 35.506 36.4032V36.3984Z" fill="white" stroke="white" stroke-width="0.4" stroke-miterlimit="10"/>
<path d="M16.7388 19.8116C16.7555 19.8116 16.7722 19.8116 16.789 19.8092L24.9065 18.8507C25.1429 18.822 25.3101 18.6092 25.2838 18.3726C25.2552 18.1359 25.0402 17.9686 24.8062 17.9949L16.6886 18.9535C16.4522 18.9822 16.285 19.1949 16.3113 19.4316C16.3376 19.6515 16.5239 19.8116 16.7388 19.8116Z" fill="white" stroke="white" stroke-width="0.4" stroke-miterlimit="10"/>
<path d="M13.8875 25.3462C13.9138 25.5661 14.1 25.7263 14.315 25.7263C14.3317 25.7263 14.3484 25.7263 14.3651 25.7239L28.6371 24.0386C28.8735 24.0099 29.0407 23.7972 29.0144 23.5605C28.9858 23.3239 28.7708 23.1542 28.5368 23.1828L14.2648 24.8681C14.0284 24.8968 13.8612 25.1095 13.8875 25.3462Z" fill="white" stroke="white" stroke-width="0.4" stroke-miterlimit="10"/>
<path d="M23.4304 35.7144C23.4925 35.7455 23.5594 35.7622 23.6263 35.7622C23.7815 35.7622 23.9343 35.6762 24.0084 35.5279C24.1923 35.167 24.4526 34.9447 24.8013 34.8515C25.3649 34.7009 26.0551 34.9136 26.4897 35.1933C27.3638 35.755 28.4242 35.4467 29.038 34.9184C29.2195 34.763 29.2386 34.4929 29.0857 34.3112C28.9305 34.1295 28.6606 34.1104 28.4791 34.2634C28.2069 34.4977 27.5358 34.8419 26.9554 34.4666C26.4038 34.1128 25.4509 33.7805 24.5768 34.0172C23.9964 34.1726 23.5355 34.5598 23.2442 35.1335C23.1367 35.3463 23.2203 35.6044 23.4304 35.712V35.7144Z" fill="white" stroke="white" stroke-width="0.4" stroke-miterlimit="10"/>
<path d="M40.0439 17.0021L37.9829 16.108C37.1303 15.7375 36.1392 16.132 35.769 16.9853L30.8517 28.3471C30.4361 29.3057 30.2761 30.3598 30.3884 31.3973L30.5842 33.2092C30.6344 33.6778 30.9209 34.0674 31.3532 34.2539C31.5204 34.3256 31.6947 34.3614 31.8691 34.3614C32.1413 34.3614 32.4112 34.273 32.6405 34.0985L34.0949 33.0013C34.9284 32.3726 35.5875 31.5335 36.0007 30.5774L40.918 19.2156C41.0971 18.8021 41.1043 18.3455 40.9395 17.9272C40.7747 17.5088 40.4547 17.179 40.0439 16.9997V17.0021ZM40.1299 18.8762L35.2126 30.2379C34.8567 31.0602 34.2907 31.7774 33.5766 32.3176L32.1222 33.4148C31.9431 33.5511 31.7616 33.4961 31.6947 33.465C31.6255 33.4363 31.4631 33.3407 31.4392 33.116L31.2433 31.3041C31.1478 30.4148 31.2839 29.5088 31.6398 28.6865L36.5571 17.3248C36.6909 17.014 36.9942 16.8276 37.3142 16.8276C37.4241 16.8276 37.5339 16.8491 37.6414 16.8945L39.7024 17.7885C39.903 17.877 40.0606 18.0371 40.1418 18.2427C40.223 18.4483 40.2183 18.6706 40.1323 18.8738L40.1299 18.8762Z" fill="white" stroke="white" stroke-width="0.4" stroke-miterlimit="10"/>
</svg>
