<svg width="44" height="56" viewBox="0 0 44 56" fill="none" xmlns="http://www.w3.org/2000/svg">
<path d="M29.4145 47.2869L32.929 43.9604C33.6639 43.2636 33.9323 42.2373 33.626 41.284C33.314 40.3044 32.474 39.6046 31.4357 39.4589L26.565 38.7708L24.3892 34.4909C23.9313 33.5871 23.0038 33.0273 21.9713 33.0273C20.9389 33.0273 20.0114 33.5871 19.5535 34.4909L17.3777 38.7708L12.507 39.4589C11.4687 39.6046 10.6287 40.3044 10.3166 41.284C10.0133 42.2373 10.2787 43.2636 11.0137 43.9604L14.5282 47.2869L13.6999 51.9808C13.5278 52.9546 13.9215 53.9313 14.7294 54.529C15.5723 55.1529 16.6748 55.2403 17.611 54.7651L21.9713 52.5406L26.3316 54.7651C26.7312 54.9692 27.16 55.0683 27.5858 55.0683C28.1603 55.0683 28.7291 54.8876 29.2132 54.529C30.0211 53.9313 30.4149 52.9546 30.2428 51.9808L29.4145 47.2869ZM28.5891 53.6864C28.0699 54.0712 27.3874 54.1266 26.81 53.8293L22.2105 51.4823C22.1346 51.4444 22.053 51.424 21.9713 51.424C21.8897 51.424 21.808 51.4444 21.7322 51.4823L17.1327 53.8293C16.5552 54.1237 15.8728 54.0683 15.3536 53.6864C14.8607 53.3219 14.6303 52.7534 14.7324 52.1645L15.6103 47.1936C15.6423 47.0187 15.5811 46.8438 15.4557 46.7213L11.7341 43.1994C11.2879 42.7767 11.1303 42.179 11.3141 41.6047C11.5066 41.0041 12.0053 40.5901 12.6528 40.4997L17.7948 39.7738C17.9639 39.7504 18.1127 39.6455 18.1885 39.4909L20.4868 34.9661C20.7697 34.4093 21.3238 34.0769 21.9684 34.0769C22.613 34.0769 23.1671 34.4093 23.45 34.9661L25.7483 39.4909C25.8271 39.6425 25.9729 39.7475 26.1421 39.7738L31.284 40.4997C31.9286 40.5901 32.4302 41.0041 32.6198 41.6047C32.8036 42.1819 32.646 42.7767 32.1998 43.1994L28.4783 46.7213C28.3499 46.8409 28.2916 47.0187 28.3237 47.1936L29.2016 52.1645C29.3066 52.7534 29.0732 53.3219 28.5803 53.6864H28.5891Z" fill="white" stroke="white" stroke-width="0.4" stroke-miterlimit="10"/>
<path d="M40.9094 36.6405L36.6774 36.0399L34.7875 32.3256C34.3733 31.5122 33.5421 31.0078 32.6117 31.0078C31.6813 31.0078 30.8501 31.5122 30.4359 32.3256L28.438 36.2498C28.3068 36.5093 28.4089 36.8242 28.6684 36.9554C28.928 37.0866 29.243 36.9845 29.3743 36.725L31.3721 32.8008C31.6084 32.3344 32.0721 32.0574 32.6117 32.0574C33.1512 32.0574 33.615 32.3344 33.8512 32.8008L35.8637 36.76C35.9424 36.9116 36.0883 37.0166 36.2574 37.0428L40.7636 37.6813C41.3031 37.7571 41.7202 38.1012 41.8806 38.5997C42.0352 39.0807 41.904 39.5764 41.5306 39.9292L38.2728 43.0137C38.1445 43.1362 38.0861 43.3111 38.1182 43.486L38.8853 47.8417C38.9728 48.3315 38.7803 48.8068 38.369 49.11C38.0278 49.3607 37.4591 49.5269 36.8787 49.2324L33.0171 47.2616C32.7575 47.1304 32.4425 47.2324 32.3113 47.4919C32.18 47.7514 32.2821 48.0662 32.5417 48.1974L36.4032 50.1683C36.762 50.352 37.147 50.4423 37.532 50.4423C38.0482 50.4423 38.5615 50.2791 38.9961 49.9555C39.7223 49.4161 40.0782 48.5385 39.9207 47.661L39.2032 43.5852L42.2539 40.6959C42.916 40.0691 43.1581 39.1449 42.881 38.2848C42.5981 37.4044 41.8427 36.7775 40.9123 36.6463L40.9094 36.6405Z" fill="white" stroke="white" stroke-width="0.4" stroke-miterlimit="10"/>
<path d="M10.9335 47.2587L7.06905 49.2295C6.49157 49.524 5.91992 49.3607 5.5816 49.1071C5.17036 48.8039 4.97786 48.3286 5.06536 47.8388L5.83242 43.486C5.86159 43.3111 5.80325 43.1362 5.67783 43.0137L2.41999 39.9292C2.04666 39.5764 1.91543 39.0807 2.07001 38.5997C2.23042 38.0982 2.64748 37.7571 3.18705 37.6813L7.69029 37.0428C7.85945 37.0195 8.00819 36.9146 8.08402 36.76L10.0965 32.8008C10.3327 32.3344 10.7965 32.0574 11.336 32.0574C11.8756 32.0574 12.3393 32.3344 12.5756 32.8008L14.5734 36.725C14.7047 36.9845 15.0226 37.0866 15.2793 36.9554C15.5388 36.8242 15.6409 36.5093 15.5097 36.2498L13.5118 32.3256C13.0976 31.5122 12.2664 31.0078 11.336 31.0078C10.4086 31.0078 9.57438 31.5122 9.16023 32.3256L7.27028 36.0399L3.0383 36.6405C2.10499 36.7717 1.34959 37.3985 1.06668 38.279C0.792522 39.1391 1.03169 40.0633 1.69376 40.6901L4.74454 43.5793L4.02703 47.6552C3.86954 48.5327 4.22537 49.4132 4.9516 49.9496C5.38618 50.2703 5.8995 50.4365 6.41574 50.4365C6.79781 50.4365 7.18572 50.3461 7.54154 50.1625L11.4031 48.1916C11.6627 48.0604 11.7648 47.7426 11.6335 47.4861C11.5023 47.2266 11.1844 47.1245 10.9277 47.2557L10.9335 47.2587Z" fill="white" stroke="white" stroke-width="0.4" stroke-miterlimit="10"/>
<path d="M43.4963 32.5231C43.4934 32.4997 43.4876 32.4735 43.4788 32.4502C43.0005 30.8962 42.1343 29.5143 40.9793 28.4531C38.3544 25.9778 34.5803 25.9662 31.2321 26.2839C31.2291 26.2839 31.2262 26.2839 31.2233 26.2839C28.4613 26.4909 25.6964 27.9516 23.6722 29.0274C23.6577 29.0332 23.6402 29.042 23.6256 29.0507C23.2844 29.2373 22.9489 29.3569 22.5989 29.4093C22.5814 29.4093 22.5639 29.4122 22.5464 29.4152C22.2285 29.4589 21.9077 29.4502 21.5665 29.3948C21.5577 29.3948 21.5519 29.3948 21.5431 29.3918C20.5486 29.2315 19.5132 28.6834 18.5128 28.1499C17.9499 27.8525 17.3753 27.5493 16.7978 27.3044C17.4278 26.6425 17.9732 25.7125 18.3087 24.695C18.6849 23.5521 18.7694 22.4005 18.5711 21.3393C19.6269 21.8233 20.7732 22.0886 21.9719 22.0886C22.2606 22.0886 22.4969 21.8524 22.4969 21.5638C22.4969 21.2752 22.2606 21.039 21.9719 21.039C20.5544 21.039 19.2157 20.6104 18.0432 19.8524C17.9966 19.8203 17.947 19.7912 17.9003 19.7591C15.5845 18.1935 13.9425 15.3218 13.6567 11.8932C13.6567 11.8844 13.6567 11.8757 13.6567 11.8669C13.6304 11.5608 13.6187 11.2314 13.6187 10.8582C13.6187 9.97771 13.715 9.10599 13.8987 8.25467C15.4941 8.75905 18.1395 8.88149 21.9719 8.88149C23.5731 8.88149 24.8856 8.85526 25.9851 8.79986C26.2739 8.78529 26.4984 8.54038 26.4838 8.24883C26.4693 7.9602 26.2213 7.73862 25.9326 7.75028C24.8505 7.80276 23.5556 7.82901 21.9719 7.82901C15.4883 7.82901 13.0763 7.38293 13.0763 6.18467C13.0763 4.98642 16.8678 1.24586 21.9719 1.24586C27.0759 1.24586 30.8675 5.02723 30.8675 6.18467C30.8675 6.42666 30.8675 6.87857 29.7796 7.23134C29.5696 7.28382 29.4092 7.46166 29.3859 7.68323C29.1205 10.0506 26.2126 11.5812 21.9777 11.5812C20.3007 11.5812 18.7636 11.3305 17.5299 10.8553C17.2587 10.7503 16.9554 10.8844 16.8504 11.1556C16.7454 11.4267 16.8795 11.7299 17.1507 11.8349C18.5011 12.3567 20.1694 12.6337 21.9748 12.6337C26.5976 12.6337 29.8437 10.8786 30.3775 8.13513C31.4129 7.72988 31.9174 7.09139 31.9174 6.18759C31.9174 5.14094 30.745 3.6628 28.9309 2.42081C27.7176 1.5899 25.2005 0.199219 21.9748 0.199219C16.6345 0.199219 12.0292 4.21673 12.0292 6.18759C12.0292 6.89897 12.3209 7.42668 12.9246 7.81735C12.6942 8.80861 12.5688 9.82902 12.5688 10.8582C12.5688 11.2547 12.5834 11.6075 12.6096 11.9369C12.6096 11.9457 12.6096 11.9544 12.6096 11.9602C12.9188 15.7008 14.7183 18.8437 17.2703 20.593C18.3057 23.0624 16.9087 25.9312 15.675 26.9108C12.4813 25.9253 7.94599 25.5522 4.48399 27.4093C2.44238 28.5026 1.08907 30.1994 0.462001 32.456C0.456168 32.4735 0.45324 32.491 0.450324 32.5114C0.450324 32.5114 0.348253 33.1295 0.20534 34.0595C0.161591 34.3452 0.357003 34.6135 0.642829 34.6572C0.928655 34.698 1.197 34.5056 1.24074 34.2199C1.36616 33.4123 1.45947 32.8438 1.47989 32.7126C2.03113 30.7563 3.20943 29.284 4.9798 28.3364C8.2318 26.593 12.5775 27.007 15.5729 27.9778C15.5962 27.9866 15.6196 27.9953 15.6458 28.0012C16.4099 28.2169 17.1916 28.6338 18.0199 29.0741C19.1019 29.6484 20.2219 30.2432 21.3973 30.4268C21.4031 30.4268 21.4119 30.4268 21.4177 30.4298C21.8581 30.4997 22.2752 30.5056 22.6893 30.4502C22.6981 30.4502 22.7069 30.4502 22.7156 30.4502C23.1939 30.3831 23.646 30.2315 24.0952 29.9866C24.1068 29.9808 24.1156 29.9749 24.1272 29.972C26.0726 28.9399 28.7326 27.5289 31.2875 27.3335C31.2962 27.3335 31.305 27.3335 31.3137 27.3335C34.4316 27.0361 37.9344 27.0303 40.2618 29.2257C41.2768 30.1557 42.0351 31.3656 42.4609 32.7271L42.7001 34.2315C42.7409 34.491 42.9655 34.6747 43.2192 34.6747C43.2455 34.6747 43.2747 34.6747 43.3038 34.6688C43.5897 34.6222 43.7851 34.354 43.7384 34.0683L43.4934 32.5289L43.4963 32.5231Z" fill="white" stroke="white" stroke-width="0.4" stroke-miterlimit="10"/>
<path d="M31.1503 13.3466C31.1562 13.3145 31.1591 13.2795 31.1591 13.2445C31.1591 12.9559 30.9228 12.7227 30.6341 12.7227C30.3745 12.7227 30.1587 12.9122 30.1179 13.16C29.5783 15.9909 28.0675 18.4107 25.9675 19.7985C25.8859 19.8539 25.8217 19.9297 25.7809 20.0172C25.4397 20.7606 25.2676 21.5799 25.2676 22.4458C25.2676 23.1397 25.3784 23.8481 25.5942 24.5566C25.6642 24.784 25.8713 24.9268 26.0959 24.9268C26.1455 24.9268 26.198 24.921 26.2505 24.9035C26.5275 24.819 26.685 24.5245 26.5975 24.2475C26.4109 23.6382 26.3175 23.0318 26.3175 22.4429C26.3175 21.7781 26.4371 21.1542 26.6763 20.5828C28.9454 19.0259 30.5699 16.3962 31.1503 13.3407V13.3466Z" fill="white" stroke="white" stroke-width="0.4" stroke-miterlimit="10"/>
</svg>
