<svg width="46" height="46" viewBox="0 0 46 46" fill="none" xmlns="http://www.w3.org/2000/svg">
<path d="M13.5295 39.2135H6.91447C4.72854 39.2135 2.94923 37.4348 2.94923 35.247V26.0184C2.94923 25.7483 2.72819 25.5273 2.45802 25.5273C2.18785 25.5273 1.9668 25.7483 1.9668 26.0184V35.247C1.9668 37.975 4.18547 40.1955 6.91447 40.1955H13.5295C13.7997 40.1955 14.0208 39.9746 14.0208 39.7045C14.0208 39.4344 13.7997 39.2135 13.5295 39.2135Z" fill="white" stroke="white" stroke-width="0.4" stroke-miterlimit="10"/>
<path d="M40.2891 25.0652V27.0048C40.2891 27.2749 40.5101 27.4959 40.7803 27.4959C41.0505 27.4959 41.2715 27.2749 41.2715 27.0048V25.0652C41.2715 24.7952 41.0505 24.5742 40.7803 24.5742C40.5101 24.5742 40.2891 24.7952 40.2891 25.0652Z" fill="white" stroke="white" stroke-width="0.4" stroke-miterlimit="10"/>
<path d="M21.5372 26.1573C21.5645 26.1628 21.5918 26.1655 21.6191 26.1655C21.6464 26.1655 21.6737 26.1655 21.701 26.1573L28.9001 24.9434C29.1675 24.897 29.3476 24.6461 29.3039 24.3787C29.2576 24.1114 29.0038 23.9313 28.7363 23.975L21.6191 25.1753L3.06466 22.0436C1.97579 21.8608 1.18439 20.9251 1.18439 19.8203V12.834C1.18439 10.6462 2.96369 8.8676 5.14962 8.8676H38.0886C40.2745 8.8676 42.0538 10.6462 42.0538 12.834V19.8203C42.0538 20.7587 41.4644 21.6071 40.5856 21.9317C40.3318 22.0272 40.2008 22.3082 40.2963 22.5619C40.3918 22.8156 40.6757 22.9465 40.9267 22.8511C42.1875 22.3818 43.0335 21.1652 43.0335 19.8176V12.8313C43.0335 10.1034 40.8148 7.88281 38.0859 7.88281H5.14689C2.41789 7.88281 0.199219 10.1034 0.199219 12.8313V19.8176C0.199219 21.4025 1.33448 22.7447 2.8982 23.0093L21.5345 26.1546L21.5372 26.1573Z" fill="white" stroke="white" stroke-width="0.4" stroke-miterlimit="10"/>
<path d="M5.73341 11.7695C5.46324 11.7695 5.24219 11.9905 5.24219 12.2606C5.24219 12.5306 5.46324 12.7516 5.73341 12.7516H8.7353C9.00547 12.7516 9.22652 12.5306 9.22652 12.2606C9.22652 11.9905 9.00547 11.7695 8.7353 11.7695H5.73341Z" fill="white" stroke="white" stroke-width="0.4" stroke-miterlimit="10"/>
<path d="M34.5029 11.7695C34.2328 11.7695 34.0117 11.9905 34.0117 12.2606C34.0117 12.5306 34.2328 12.7516 34.5029 12.7516H37.5048C37.775 12.7516 37.9961 12.5306 37.9961 12.2606C37.9961 11.9905 37.775 11.7695 37.5048 11.7695H34.5029Z" fill="white" stroke="white" stroke-width="0.4" stroke-miterlimit="10"/>
<path d="M13.7208 4.85582C13.7562 2.82896 15.4346 1.18127 17.4622 1.18127H25.772C27.8024 1.18127 29.4807 2.82896 29.5134 4.85582C29.5189 5.12316 29.7372 5.33866 30.0047 5.33866H30.0128C30.0538 5.33866 30.092 5.33048 30.1302 5.32229C30.3431 5.26501 30.5013 5.07133 30.4959 4.83946C30.4522 2.28064 28.3318 0.199219 25.772 0.199219H17.4622C14.8997 0.199219 12.7792 2.28064 12.7383 4.83946C12.7356 5.07952 12.9021 5.28138 13.1286 5.32775C13.1586 5.33321 13.1886 5.33866 13.2213 5.33866C13.5024 5.3332 13.7153 5.12589 13.7208 4.85582Z" fill="white" stroke="white" stroke-width="0.4" stroke-miterlimit="10"/>
<path d="M42.4009 29.4154H36.4817C37.808 27.6804 37.9526 25.3562 37.969 24.8461C37.969 24.8297 37.9717 24.7833 37.9717 22.0772C37.9717 21.2643 37.6524 20.5004 37.0766 19.9248C36.5008 19.3465 35.7367 19.0273 34.9207 19.0273C33.2369 19.0273 31.8697 20.3968 31.8697 22.0772V23.3321C31.8697 24.2759 31.6159 25.2061 31.1383 26.0191C30.8982 26.431 30.6225 26.862 30.3223 27.2985C29.5146 28.477 28.6686 29.2462 27.5797 29.7946C26.3653 30.4056 25.6094 31.625 25.6094 32.9781V42.1931C25.6094 44.1572 27.2086 45.7558 29.1734 45.7558H40.2204C41.9397 45.7558 43.2551 44.6264 43.6562 42.7905C43.7272 42.384 45.4028 32.8389 45.4492 32.5416C45.5638 31.7969 45.3591 31.074 44.8706 30.5038C44.2866 29.8218 43.3642 29.4154 42.4036 29.4154H42.4009ZM44.4776 32.3916C44.4422 32.6207 43.2905 39.1841 42.6902 42.6023C42.3927 43.9635 41.4703 44.7764 40.2177 44.7764H29.1707C27.7462 44.7764 26.5891 43.6198 26.5891 42.1958V32.9808C26.5891 32.0015 27.1376 31.1176 28.0191 30.6729C29.2635 30.0455 30.2241 29.178 31.1301 27.8577C31.444 27.3994 31.7332 26.9493 31.9843 26.5183C32.5492 25.5553 32.8494 24.4532 32.8494 23.3348V22.0799C32.8494 20.9396 33.78 20.0121 34.9207 20.0121C35.472 20.0121 35.9905 20.2276 36.3807 20.6205C36.7737 21.0133 36.9893 21.5316 36.9893 22.0799C36.9893 23.1274 36.9893 24.7206 36.9893 24.8106C36.9784 25.1379 36.8392 28.0623 35.0217 29.5272C34.8607 29.6582 34.7979 29.8764 34.8661 30.0728C34.9343 30.2692 35.1199 30.4002 35.3301 30.4002H42.4036C43.0722 30.4002 43.7299 30.6866 44.1256 31.1449C44.3385 31.3931 44.5704 31.8105 44.4804 32.3943L44.4776 32.3916Z" fill="white" stroke="white" stroke-width="0.4" stroke-miterlimit="10"/>
<path d="M19.8828 29.1758C17.9125 29.1758 16.3105 30.7771 16.3105 32.7467V42.1908C16.3105 44.1604 17.9125 45.7617 19.8828 45.7617C21.8531 45.7617 23.4551 44.1604 23.4551 42.1908V32.7467C23.4551 30.7771 21.8531 29.1758 19.8828 29.1758ZM22.4726 42.1881C22.4726 43.6148 21.3101 44.7769 19.8828 44.7769C18.4555 44.7769 17.293 43.6148 17.293 42.1881V32.7439C17.293 31.3172 18.4555 30.1551 19.8828 30.1551C21.3101 30.1551 22.4726 31.3172 22.4726 32.7439V42.1881Z" fill="white" stroke="white" stroke-width="0.4" stroke-miterlimit="10"/>
</svg>
