<svg width="43" height="44" viewBox="0 0 43 44" fill="none" xmlns="http://www.w3.org/2000/svg">
<path d="M32.3904 21.1635C32.6797 21.1635 32.9144 20.9289 32.9144 20.6424V3.24361C32.9144 1.56592 31.5472 0.199219 29.8688 0.199219H3.24478C1.56645 0.199219 0.199219 1.56592 0.199219 3.24361V40.4528C0.199219 42.1332 1.56645 43.4972 3.24478 43.4972H23.7777C24.067 43.4972 24.3017 43.2626 24.3017 42.9761C24.3017 42.6897 24.067 42.4551 23.7777 42.4551H3.24478C2.14226 42.4551 1.24442 41.5576 1.24442 40.4555V3.24633C1.24442 2.14424 2.14226 1.24675 3.24478 1.24675H29.8688C30.9714 1.24675 31.8692 2.14424 31.8692 3.24633V20.6452C31.8692 20.9343 32.1039 21.1662 32.3932 21.1662L32.3904 21.1635Z" fill="white" stroke="white" stroke-width="0.4" stroke-miterlimit="10"/>
<path d="M25.4696 10.6055H21.4771C21.1878 10.6055 20.9531 10.8401 20.9531 11.1265C20.9531 11.4129 21.1878 11.6475 21.4771 11.6475H25.4696C25.7589 11.6475 25.9936 11.4129 25.9936 11.1265C25.9936 10.8401 25.7589 10.6055 25.4696 10.6055Z" fill="white" stroke="white" stroke-width="0.4" stroke-miterlimit="10"/>
<path d="M16.7669 10.6055H7.63843C7.34915 10.6055 7.11719 10.8401 7.11719 11.1265C7.11719 11.4129 7.35188 11.6475 7.63843 11.6475H16.7669C17.0562 11.6475 17.2909 11.4129 17.2909 11.1265C17.2909 10.8401 17.0562 10.6055 16.7669 10.6055Z" fill="white" stroke="white" stroke-width="0.4" stroke-miterlimit="10"/>
<path d="M25.9941 18.271C25.9941 17.9819 25.7594 17.75 25.4701 17.75H21.7505C21.4613 17.75 21.2266 17.9846 21.2266 18.271C21.2266 18.5575 21.4613 18.7921 21.7505 18.7921H25.4701C25.7594 18.7921 25.9941 18.5575 25.9941 18.271Z" fill="white" stroke="white" stroke-width="0.4" stroke-miterlimit="10"/>
<path d="M14.9434 18.271C14.9434 18.5602 15.1781 18.7921 15.4673 18.7921H18.0653C18.3546 18.7921 18.5893 18.5575 18.5893 18.271C18.5893 17.9846 18.3546 17.75 18.0653 17.75H15.4673C15.1781 17.75 14.9434 17.9846 14.9434 18.271Z" fill="white" stroke="white" stroke-width="0.4" stroke-miterlimit="10"/>
<path d="M7.63647 18.796H12.052C12.3413 18.796 12.5759 18.5614 12.5759 18.2749C12.5759 17.9885 12.3413 17.7539 12.052 17.7539H7.63647C7.34719 17.7539 7.11523 17.9885 7.11523 18.2749C7.11523 18.5614 7.34992 18.796 7.63647 18.796Z" fill="white" stroke="white" stroke-width="0.4" stroke-miterlimit="10"/>
<path d="M22.9258 25.4234C22.9258 25.1342 22.6912 24.9023 22.4019 24.9023H7.63529C7.34602 24.9023 7.11133 25.1369 7.11133 25.4234C7.11133 25.7098 7.34602 25.9444 7.63529 25.9444H22.4019C22.6912 25.9444 22.9258 25.7098 22.9258 25.4234Z" fill="white" stroke="white" stroke-width="0.4" stroke-miterlimit="10"/>
<path d="M7.63529 32.0469C7.34602 32.0469 7.11133 32.2815 7.11133 32.5679C7.11133 32.8543 7.34602 33.089 7.63529 33.089H19.5856C19.8748 33.089 20.1095 32.8543 20.1095 32.5679C20.1095 32.2815 19.8748 32.0469 19.5856 32.0469H7.63529Z" fill="white" stroke="white" stroke-width="0.4" stroke-miterlimit="10"/>
<path d="M35.9294 24.0891C34.7996 23.6635 33.607 23.4453 32.3871 23.4453C30.8043 23.4453 29.2897 23.8027 27.887 24.5092C27.636 24.6347 27.535 24.9348 27.6469 25.1857C27.6496 25.1939 27.6523 25.2021 27.6551 25.2103C27.7479 25.3931 27.9307 25.4967 28.1217 25.4967C28.2009 25.4967 28.28 25.4776 28.3564 25.4422C29.6145 24.8093 30.9708 24.4901 32.3871 24.4901C33.4787 24.4901 34.5485 24.6838 35.5582 25.0657C35.8284 25.1666 36.1313 25.033 36.2323 24.7602C36.2459 24.7247 36.2541 24.6865 36.2596 24.6511C36.2951 24.4137 36.1613 24.1764 35.9267 24.0864L35.9294 24.0891Z" fill="white" stroke="white" stroke-width="0.4" stroke-miterlimit="10"/>
<path d="M25.6507 27.5371C25.8499 27.3107 26.0628 27.0925 26.2811 26.8906C26.4939 26.6942 26.5049 26.3641 26.3084 26.1513C26.3084 26.1513 26.3056 26.1486 26.3029 26.1459C26.1064 25.9385 25.7789 25.9304 25.5688 26.1241C25.3232 26.3505 25.0858 26.5933 24.8647 26.847C24.6737 27.0625 24.6955 27.3925 24.9111 27.5835C24.9139 27.5862 24.9193 27.589 24.922 27.5917C25.0203 27.6735 25.1376 27.7144 25.2577 27.7144C25.4023 27.7144 25.547 27.6544 25.6507 27.5371Z" fill="white" stroke="white" stroke-width="0.4" stroke-miterlimit="10"/>
<path d="M24.0945 30.0202C24.1982 29.7719 24.3128 29.5264 24.4411 29.2864C24.572 29.0381 24.482 28.7326 24.2418 28.5935C24.2364 28.5907 24.2309 28.5853 24.2227 28.5798C23.9662 28.4462 23.6524 28.5416 23.5159 28.7981C23.374 29.0654 23.2458 29.3409 23.1284 29.6192C23.0165 29.8865 23.1448 30.192 23.4095 30.3012C23.4231 30.3066 23.4341 30.3093 23.4477 30.3121C23.5023 30.3312 23.5569 30.3421 23.6114 30.3421C23.8161 30.3421 24.0099 30.222 24.0945 30.0202Z" fill="white" stroke="white" stroke-width="0.4" stroke-miterlimit="10"/>
<path d="M41.023 30.9821C41.2549 31.7868 41.3723 32.6243 41.3723 33.4727C41.3723 38.4239 37.3416 42.4531 32.3884 42.4531C27.4353 42.4531 23.4046 38.4239 23.4046 33.4727C23.4046 33.2026 23.1999 32.9844 22.9352 32.9571C22.9161 32.9571 22.8997 32.9516 22.8806 32.9516C22.5913 32.9516 22.3594 33.1862 22.3594 33.4727C22.3594 38.9995 26.8568 43.4979 32.3884 43.4979C37.9201 43.4979 42.4175 39.0022 42.4175 33.4727C42.4175 32.5288 42.2865 31.5931 42.0272 30.6929C41.959 30.461 41.7462 30.3137 41.5169 30.3164C41.4705 30.3164 41.4269 30.3219 41.3805 30.3355C41.1021 30.4147 40.9438 30.7038 41.023 30.9821Z" fill="white" stroke="white" stroke-width="0.4" stroke-miterlimit="10"/>
<path d="M26.4356 30.7778C26.2473 30.5596 25.9171 30.535 25.6988 30.7233C25.4805 30.9115 25.4559 31.2416 25.6442 31.4598L31.3233 38.0614C31.4242 38.176 31.5689 38.2442 31.719 38.2442C31.7244 38.2442 31.7326 38.2442 31.7381 38.2442C31.8963 38.2387 32.0437 38.1624 32.1392 38.0342L39.9687 27.4961L41.6034 25.2946C41.7753 25.0628 41.7262 24.7354 41.4942 24.5636C41.2622 24.3917 40.9348 24.4408 40.7628 24.6727L39.2592 26.6968L31.6889 36.8857L26.4384 30.7805L26.4356 30.7778Z" fill="white" stroke="white" stroke-width="0.4" stroke-miterlimit="10"/>
</svg>
