<svg width="55" height="51" viewBox="0 0 55 51" fill="none" xmlns="http://www.w3.org/2000/svg">
<path d="M33.1891 7.51209C33.0063 7.50936 32.8234 7.50391 32.6406 7.50391C28.4461 7.50391 24.3826 8.71511 20.8895 11.0066C20.663 11.1566 20.6002 11.4594 20.7476 11.6858C20.8431 11.8304 20.9987 11.9068 21.1597 11.9068C21.2525 11.9068 21.3453 11.8795 21.4299 11.825C24.762 9.63989 28.6399 8.48324 32.6433 8.48324C32.8207 8.48324 32.9953 8.48597 33.1727 8.49142C33.1754 8.49142 33.1809 8.49142 33.1836 8.49142C33.4511 8.49142 33.6694 8.27864 33.6749 8.0113C33.6803 7.74123 33.4647 7.51482 33.1946 7.50936L33.1891 7.51209Z" fill="white" stroke="white" stroke-width="0.4" stroke-miterlimit="10"/>
<path d="M52.0572 21.0514C51.8034 21.1469 51.6751 21.4306 51.7734 21.6843C52.6521 23.9976 53.0997 26.4391 53.0997 28.9379C53.0997 40.2152 43.9221 49.3893 32.6404 49.3893C25.0074 49.3893 18.0621 45.191 14.5144 38.4339C14.3889 38.1938 14.0914 38.1011 13.8512 38.2266C13.6111 38.352 13.5183 38.6494 13.6438 38.8895C17.3607 45.9712 24.639 50.3686 32.6404 50.3686C44.4624 50.3686 54.0821 40.7526 54.0821 28.9352C54.0821 26.3163 53.6154 23.7603 52.693 21.3324C52.5975 21.0787 52.3137 20.9505 52.0599 21.0487L52.0572 21.0514Z" fill="white" stroke="white" stroke-width="0.4" stroke-miterlimit="10"/>
<path d="M29.7348 37.789C30.5726 37.7481 31.4431 37.2134 32.1854 36.2832C33.3098 34.8701 34.2486 32.3576 33.8092 29.9298C33.5609 28.5467 32.8813 27.3764 31.8416 26.5444C28.9434 24.2284 26.1871 25.8542 23.7528 27.2891C22.9805 27.7447 22.2492 28.1757 21.5178 28.4922C21.2695 28.6013 21.1548 28.8904 21.264 29.1387C21.3732 29.3869 21.6624 29.5015 21.9108 29.3924C22.6967 29.0514 23.4881 28.5849 24.2523 28.1348C26.621 26.7381 28.8588 25.4205 31.2276 27.3109C32.0899 28.0011 32.633 28.9395 32.8431 30.1044C33.2252 32.2213 32.371 34.4745 31.4159 35.6748C30.8537 36.3814 30.2397 36.7851 29.6884 36.8124C28.9325 36.8479 28.2802 37.197 27.8054 37.819C27.1068 38.7329 26.853 40.195 27.1559 41.5426C27.4315 42.8111 28.1411 43.7195 29.1044 44.0333C29.3036 44.0987 29.5028 44.1915 29.7021 44.3115C30.3461 44.7016 30.982 45.3781 31.4923 46.2183C31.5851 46.3711 31.7461 46.4557 31.9125 46.4557C31.9999 46.4557 32.0872 46.4339 32.1663 46.3848C32.3983 46.2429 32.472 45.9428 32.3328 45.7109C31.7433 44.7371 30.9901 43.9432 30.2124 43.474C29.9504 43.3131 29.6775 43.1876 29.4073 43.1003C28.7878 42.8984 28.3157 42.2546 28.1165 41.3326C27.8791 40.2714 28.0674 39.1011 28.5886 38.4164C28.8861 38.0263 29.2736 37.8163 29.7375 37.7944L29.7348 37.789Z" fill="white" stroke="white" stroke-width="0.4" stroke-miterlimit="10"/>
<path d="M49.2533 26.6264C49.316 26.6537 49.3843 26.6674 49.4498 26.6674C49.6381 26.6674 49.8182 26.5582 49.9 26.3727C50.0092 26.1245 49.8973 25.8353 49.6462 25.7262C49.2178 25.538 48.7921 25.3143 48.3472 25.0442C48.1153 24.9024 47.8124 24.9788 47.6732 25.2079C47.5313 25.4398 47.6077 25.7426 47.8369 25.8817C48.3199 26.1763 48.7839 26.4191 49.2533 26.6237V26.6264Z" fill="white" stroke="white" stroke-width="0.4" stroke-miterlimit="10"/>
<path d="M36.3683 18.8838C36.5648 18.8838 36.7504 18.7665 36.8268 18.5701C36.925 18.3164 36.8022 18.0327 36.5484 17.9345C34.2915 17.0534 32.2366 15.0729 30.2663 11.8785C30.1244 11.6466 29.8215 11.5757 29.5895 11.7175C29.3575 11.8594 29.2866 12.1622 29.4285 12.394C31.5161 15.774 33.7266 17.8854 36.1882 18.8484C36.2482 18.8702 36.3083 18.8811 36.3656 18.8811L36.3683 18.8838Z" fill="white" stroke="white" stroke-width="0.4" stroke-miterlimit="10"/>
<path d="M42.2861 43.4589C42.5563 43.4589 42.7774 43.2407 42.7774 42.9679C42.7801 41.1156 43.8417 40.1035 46.6907 39.2306C46.95 39.1515 47.0946 38.876 47.0155 38.6168C46.9363 38.3576 46.6607 38.2103 46.4014 38.2922C44.0108 39.026 41.8004 40.0981 41.7949 42.9679C41.7949 43.2379 42.0132 43.4589 42.2861 43.4589Z" fill="white" stroke="white" stroke-width="0.4" stroke-miterlimit="10"/>
<path d="M45.393 0.199219C40.3716 0.199219 36.2891 4.28295 36.2891 9.29964C36.2891 11.4847 37.6481 14.7419 39.9241 18.0154C41.5533 20.3587 43.9657 23.0949 45.393 23.0949C46.8202 23.0949 49.23 20.3587 50.8619 18.0154C53.1379 14.7419 54.4969 11.4847 54.4969 9.29964C54.4969 4.28022 50.4116 0.199219 45.393 0.199219ZM50.0541 17.4562C47.8436 20.6343 45.9661 22.1155 45.393 22.1155C44.8199 22.1155 42.9424 20.6343 40.7319 17.4562C38.5651 14.3409 37.2715 11.2938 37.2715 9.29964C37.2715 4.82308 40.9147 1.18127 45.393 1.18127C49.8713 1.18127 53.5145 4.82308 53.5145 9.29964C53.5145 11.291 52.2209 14.3409 50.0541 17.4562Z" fill="white" stroke="white" stroke-width="0.4" stroke-miterlimit="10"/>
<path d="M45.3939 4.22266C42.5912 4.22266 40.3125 6.50049 40.3125 9.30209C40.3125 12.1037 42.5912 14.3815 45.3939 14.3815C48.1966 14.3815 50.4753 12.1037 50.4753 9.30209C50.4753 6.50049 48.1966 4.22266 45.3939 4.22266ZM45.3939 13.3995C43.1343 13.3995 41.2949 11.5608 41.2949 9.30209C41.2949 7.04335 43.1343 5.20471 45.3939 5.20471C47.6535 5.20471 49.4928 7.04335 49.4928 9.30209C49.4928 11.5608 47.6535 13.3995 45.3939 13.3995Z" fill="white" stroke="white" stroke-width="0.4" stroke-miterlimit="10"/>
<path d="M9.72849 30.2821L14.4524 35.1733C14.889 35.6262 15.4648 35.8662 16.0598 35.8662C16.3299 35.8662 16.6028 35.8171 16.8703 35.7162C17.7272 35.3916 18.2839 34.6223 18.3221 33.7084L19.1517 14.8938C19.1926 13.9881 18.7123 13.1779 17.8991 12.7769C17.0859 12.3759 16.1498 12.4877 15.4539 13.0688L1.00935 25.1618C0.307994 25.7483 0.035098 26.6594 0.297082 27.5351C0.559065 28.4108 1.28771 29.0218 2.19647 29.1255L8.95344 29.903C9.24545 29.9357 9.51835 30.0721 9.72302 30.2821H9.72849ZM1.24403 27.2541C1.12669 26.8667 1.17309 26.313 1.64521 25.9147L16.087 13.8217C16.4855 13.4889 17.0012 13.4262 17.4652 13.658C17.9318 13.8872 18.1938 14.3346 18.172 14.8529L17.3424 33.6675C17.3151 34.284 16.9003 34.655 16.5237 34.7996C16.1471 34.9442 15.5876 34.9387 15.1592 34.4941L10.4353 29.6029C10.0723 29.2292 9.58931 28.9891 9.07081 28.9291L2.31381 28.1516C1.69979 28.0807 1.35867 27.6415 1.24132 27.2541H1.24403Z" fill="white" stroke="white" stroke-width="0.4" stroke-miterlimit="10"/>
</svg>
